%TF.GenerationSoftware,KiCad,Pcbnew,10.0.1*%
%TF.CreationDate,2026-09-29T15:39:54+01:00*%
%TF.ProjectId,pc080,70633038-302e-46b6-9963-61645f706362,rev?*%
%TF.SameCoordinates,Original*%
%TF.FileFunction,Other,Comment*%
%FSLAX46Y46*%
G04 Gerber Fmt 4.6, Leading zero omitted, Abs format (unit mm)*
G04 Created by KiCad (PCBNEW 10.0.1) date 2026-09-29 15:39:54*
%MOMM*%
%LPD*%
G01*
G04 APERTURE LIST*
%ADD10C,0.300000*%
G04 APERTURE END LIST*
D10*
X98129510Y-60675198D02*
X98343796Y-60746626D01*
X98343796Y-60746626D02*
X98415225Y-60818055D01*
X98415225Y-60818055D02*
X98486653Y-60960912D01*
X98486653Y-60960912D02*
X98486653Y-61175198D01*
X98486653Y-61175198D02*
X98415225Y-61318055D01*
X98415225Y-61318055D02*
X98343796Y-61389484D01*
X98343796Y-61389484D02*
X98200939Y-61460912D01*
X98200939Y-61460912D02*
X97629510Y-61460912D01*
X97629510Y-61460912D02*
X97629510Y-59960912D01*
X97629510Y-59960912D02*
X98129510Y-59960912D01*
X98129510Y-59960912D02*
X98272368Y-60032341D01*
X98272368Y-60032341D02*
X98343796Y-60103769D01*
X98343796Y-60103769D02*
X98415225Y-60246626D01*
X98415225Y-60246626D02*
X98415225Y-60389484D01*
X98415225Y-60389484D02*
X98343796Y-60532341D01*
X98343796Y-60532341D02*
X98272368Y-60603769D01*
X98272368Y-60603769D02*
X98129510Y-60675198D01*
X98129510Y-60675198D02*
X97629510Y-60675198D01*
X99772368Y-61460912D02*
X99772368Y-60675198D01*
X99772368Y-60675198D02*
X99700939Y-60532341D01*
X99700939Y-60532341D02*
X99558082Y-60460912D01*
X99558082Y-60460912D02*
X99272368Y-60460912D01*
X99272368Y-60460912D02*
X99129510Y-60532341D01*
X99772368Y-61389484D02*
X99629510Y-61460912D01*
X99629510Y-61460912D02*
X99272368Y-61460912D01*
X99272368Y-61460912D02*
X99129510Y-61389484D01*
X99129510Y-61389484D02*
X99058082Y-61246626D01*
X99058082Y-61246626D02*
X99058082Y-61103769D01*
X99058082Y-61103769D02*
X99129510Y-60960912D01*
X99129510Y-60960912D02*
X99272368Y-60889484D01*
X99272368Y-60889484D02*
X99629510Y-60889484D01*
X99629510Y-60889484D02*
X99772368Y-60818055D01*
X100415225Y-61389484D02*
X100558082Y-61460912D01*
X100558082Y-61460912D02*
X100843796Y-61460912D01*
X100843796Y-61460912D02*
X100986653Y-61389484D01*
X100986653Y-61389484D02*
X101058082Y-61246626D01*
X101058082Y-61246626D02*
X101058082Y-61175198D01*
X101058082Y-61175198D02*
X100986653Y-61032341D01*
X100986653Y-61032341D02*
X100843796Y-60960912D01*
X100843796Y-60960912D02*
X100629511Y-60960912D01*
X100629511Y-60960912D02*
X100486653Y-60889484D01*
X100486653Y-60889484D02*
X100415225Y-60746626D01*
X100415225Y-60746626D02*
X100415225Y-60675198D01*
X100415225Y-60675198D02*
X100486653Y-60532341D01*
X100486653Y-60532341D02*
X100629511Y-60460912D01*
X100629511Y-60460912D02*
X100843796Y-60460912D01*
X100843796Y-60460912D02*
X100986653Y-60532341D01*
X102272368Y-61389484D02*
X102129511Y-61460912D01*
X102129511Y-61460912D02*
X101843797Y-61460912D01*
X101843797Y-61460912D02*
X101700939Y-61389484D01*
X101700939Y-61389484D02*
X101629511Y-61246626D01*
X101629511Y-61246626D02*
X101629511Y-60675198D01*
X101629511Y-60675198D02*
X101700939Y-60532341D01*
X101700939Y-60532341D02*
X101843797Y-60460912D01*
X101843797Y-60460912D02*
X102129511Y-60460912D01*
X102129511Y-60460912D02*
X102272368Y-60532341D01*
X102272368Y-60532341D02*
X102343797Y-60675198D01*
X102343797Y-60675198D02*
X102343797Y-60818055D01*
X102343797Y-60818055D02*
X101629511Y-60960912D01*
X103629511Y-61460912D02*
X103629511Y-59960912D01*
X103629511Y-61389484D02*
X103486653Y-61460912D01*
X103486653Y-61460912D02*
X103200939Y-61460912D01*
X103200939Y-61460912D02*
X103058082Y-61389484D01*
X103058082Y-61389484D02*
X102986653Y-61318055D01*
X102986653Y-61318055D02*
X102915225Y-61175198D01*
X102915225Y-61175198D02*
X102915225Y-60746626D01*
X102915225Y-60746626D02*
X102986653Y-60603769D01*
X102986653Y-60603769D02*
X103058082Y-60532341D01*
X103058082Y-60532341D02*
X103200939Y-60460912D01*
X103200939Y-60460912D02*
X103486653Y-60460912D01*
X103486653Y-60460912D02*
X103629511Y-60532341D01*
X105700939Y-61460912D02*
X105558082Y-61389484D01*
X105558082Y-61389484D02*
X105486653Y-61318055D01*
X105486653Y-61318055D02*
X105415225Y-61175198D01*
X105415225Y-61175198D02*
X105415225Y-60746626D01*
X105415225Y-60746626D02*
X105486653Y-60603769D01*
X105486653Y-60603769D02*
X105558082Y-60532341D01*
X105558082Y-60532341D02*
X105700939Y-60460912D01*
X105700939Y-60460912D02*
X105915225Y-60460912D01*
X105915225Y-60460912D02*
X106058082Y-60532341D01*
X106058082Y-60532341D02*
X106129511Y-60603769D01*
X106129511Y-60603769D02*
X106200939Y-60746626D01*
X106200939Y-60746626D02*
X106200939Y-61175198D01*
X106200939Y-61175198D02*
X106129511Y-61318055D01*
X106129511Y-61318055D02*
X106058082Y-61389484D01*
X106058082Y-61389484D02*
X105915225Y-61460912D01*
X105915225Y-61460912D02*
X105700939Y-61460912D01*
X106843796Y-60460912D02*
X106843796Y-61460912D01*
X106843796Y-60603769D02*
X106915225Y-60532341D01*
X106915225Y-60532341D02*
X107058082Y-60460912D01*
X107058082Y-60460912D02*
X107272368Y-60460912D01*
X107272368Y-60460912D02*
X107415225Y-60532341D01*
X107415225Y-60532341D02*
X107486654Y-60675198D01*
X107486654Y-60675198D02*
X107486654Y-61460912D01*
X109129511Y-59960912D02*
X109986654Y-59960912D01*
X109558082Y-61460912D02*
X109558082Y-59960912D01*
X110486653Y-60675198D02*
X110986653Y-60675198D01*
X111200939Y-61460912D02*
X110486653Y-61460912D01*
X110486653Y-61460912D02*
X110486653Y-59960912D01*
X110486653Y-59960912D02*
X111200939Y-59960912D01*
X112986653Y-61460912D02*
X112986653Y-59960912D01*
X112986653Y-59960912D02*
X113343796Y-59960912D01*
X113343796Y-59960912D02*
X113558082Y-60032341D01*
X113558082Y-60032341D02*
X113700939Y-60175198D01*
X113700939Y-60175198D02*
X113772368Y-60318055D01*
X113772368Y-60318055D02*
X113843796Y-60603769D01*
X113843796Y-60603769D02*
X113843796Y-60818055D01*
X113843796Y-60818055D02*
X113772368Y-61103769D01*
X113772368Y-61103769D02*
X113700939Y-61246626D01*
X113700939Y-61246626D02*
X113558082Y-61389484D01*
X113558082Y-61389484D02*
X113343796Y-61460912D01*
X113343796Y-61460912D02*
X112986653Y-61460912D01*
X114486653Y-61460912D02*
X114486653Y-60460912D01*
X114486653Y-59960912D02*
X114415225Y-60032341D01*
X114415225Y-60032341D02*
X114486653Y-60103769D01*
X114486653Y-60103769D02*
X114558082Y-60032341D01*
X114558082Y-60032341D02*
X114486653Y-59960912D01*
X114486653Y-59960912D02*
X114486653Y-60103769D01*
X115200939Y-61460912D02*
X115200939Y-60460912D01*
X115200939Y-60746626D02*
X115272368Y-60603769D01*
X115272368Y-60603769D02*
X115343797Y-60532341D01*
X115343797Y-60532341D02*
X115486654Y-60460912D01*
X115486654Y-60460912D02*
X115629511Y-60460912D01*
X116700939Y-61389484D02*
X116558082Y-61460912D01*
X116558082Y-61460912D02*
X116272368Y-61460912D01*
X116272368Y-61460912D02*
X116129510Y-61389484D01*
X116129510Y-61389484D02*
X116058082Y-61246626D01*
X116058082Y-61246626D02*
X116058082Y-60675198D01*
X116058082Y-60675198D02*
X116129510Y-60532341D01*
X116129510Y-60532341D02*
X116272368Y-60460912D01*
X116272368Y-60460912D02*
X116558082Y-60460912D01*
X116558082Y-60460912D02*
X116700939Y-60532341D01*
X116700939Y-60532341D02*
X116772368Y-60675198D01*
X116772368Y-60675198D02*
X116772368Y-60818055D01*
X116772368Y-60818055D02*
X116058082Y-60960912D01*
X118058082Y-61389484D02*
X117915224Y-61460912D01*
X117915224Y-61460912D02*
X117629510Y-61460912D01*
X117629510Y-61460912D02*
X117486653Y-61389484D01*
X117486653Y-61389484D02*
X117415224Y-61318055D01*
X117415224Y-61318055D02*
X117343796Y-61175198D01*
X117343796Y-61175198D02*
X117343796Y-60746626D01*
X117343796Y-60746626D02*
X117415224Y-60603769D01*
X117415224Y-60603769D02*
X117486653Y-60532341D01*
X117486653Y-60532341D02*
X117629510Y-60460912D01*
X117629510Y-60460912D02*
X117915224Y-60460912D01*
X117915224Y-60460912D02*
X118058082Y-60532341D01*
X118486653Y-60460912D02*
X119058081Y-60460912D01*
X118700938Y-59960912D02*
X118700938Y-61246626D01*
X118700938Y-61246626D02*
X118772367Y-61389484D01*
X118772367Y-61389484D02*
X118915224Y-61460912D01*
X118915224Y-61460912D02*
X119058081Y-61460912D01*
X121343796Y-61460912D02*
X121343796Y-60675198D01*
X121343796Y-60675198D02*
X121272367Y-60532341D01*
X121272367Y-60532341D02*
X121129510Y-60460912D01*
X121129510Y-60460912D02*
X120843796Y-60460912D01*
X120843796Y-60460912D02*
X120700938Y-60532341D01*
X121343796Y-61389484D02*
X121200938Y-61460912D01*
X121200938Y-61460912D02*
X120843796Y-61460912D01*
X120843796Y-61460912D02*
X120700938Y-61389484D01*
X120700938Y-61389484D02*
X120629510Y-61246626D01*
X120629510Y-61246626D02*
X120629510Y-61103769D01*
X120629510Y-61103769D02*
X120700938Y-60960912D01*
X120700938Y-60960912D02*
X120843796Y-60889484D01*
X120843796Y-60889484D02*
X121200938Y-60889484D01*
X121200938Y-60889484D02*
X121343796Y-60818055D01*
X121843796Y-60460912D02*
X122415224Y-60460912D01*
X122058081Y-59960912D02*
X122058081Y-61246626D01*
X122058081Y-61246626D02*
X122129510Y-61389484D01*
X122129510Y-61389484D02*
X122272367Y-61460912D01*
X122272367Y-61460912D02*
X122415224Y-61460912D01*
X122700939Y-60460912D02*
X123272367Y-60460912D01*
X122915224Y-59960912D02*
X122915224Y-61246626D01*
X122915224Y-61246626D02*
X122986653Y-61389484D01*
X122986653Y-61389484D02*
X123129510Y-61460912D01*
X123129510Y-61460912D02*
X123272367Y-61460912D01*
X124415225Y-61460912D02*
X124415225Y-60675198D01*
X124415225Y-60675198D02*
X124343796Y-60532341D01*
X124343796Y-60532341D02*
X124200939Y-60460912D01*
X124200939Y-60460912D02*
X123915225Y-60460912D01*
X123915225Y-60460912D02*
X123772367Y-60532341D01*
X124415225Y-61389484D02*
X124272367Y-61460912D01*
X124272367Y-61460912D02*
X123915225Y-61460912D01*
X123915225Y-61460912D02*
X123772367Y-61389484D01*
X123772367Y-61389484D02*
X123700939Y-61246626D01*
X123700939Y-61246626D02*
X123700939Y-61103769D01*
X123700939Y-61103769D02*
X123772367Y-60960912D01*
X123772367Y-60960912D02*
X123915225Y-60889484D01*
X123915225Y-60889484D02*
X124272367Y-60889484D01*
X124272367Y-60889484D02*
X124415225Y-60818055D01*
X125772368Y-61389484D02*
X125629510Y-61460912D01*
X125629510Y-61460912D02*
X125343796Y-61460912D01*
X125343796Y-61460912D02*
X125200939Y-61389484D01*
X125200939Y-61389484D02*
X125129510Y-61318055D01*
X125129510Y-61318055D02*
X125058082Y-61175198D01*
X125058082Y-61175198D02*
X125058082Y-60746626D01*
X125058082Y-60746626D02*
X125129510Y-60603769D01*
X125129510Y-60603769D02*
X125200939Y-60532341D01*
X125200939Y-60532341D02*
X125343796Y-60460912D01*
X125343796Y-60460912D02*
X125629510Y-60460912D01*
X125629510Y-60460912D02*
X125772368Y-60532341D01*
X126415224Y-61460912D02*
X126415224Y-59960912D01*
X127058082Y-61460912D02*
X127058082Y-60675198D01*
X127058082Y-60675198D02*
X126986653Y-60532341D01*
X126986653Y-60532341D02*
X126843796Y-60460912D01*
X126843796Y-60460912D02*
X126629510Y-60460912D01*
X126629510Y-60460912D02*
X126486653Y-60532341D01*
X126486653Y-60532341D02*
X126415224Y-60603769D01*
X129558082Y-61389484D02*
X129415224Y-61460912D01*
X129415224Y-61460912D02*
X129129510Y-61460912D01*
X129129510Y-61460912D02*
X128986653Y-61389484D01*
X128986653Y-61389484D02*
X128915224Y-61318055D01*
X128915224Y-61318055D02*
X128843796Y-61175198D01*
X128843796Y-61175198D02*
X128843796Y-60746626D01*
X128843796Y-60746626D02*
X128915224Y-60603769D01*
X128915224Y-60603769D02*
X128986653Y-60532341D01*
X128986653Y-60532341D02*
X129129510Y-60460912D01*
X129129510Y-60460912D02*
X129415224Y-60460912D01*
X129415224Y-60460912D02*
X129558082Y-60532341D01*
X130843796Y-61460912D02*
X130843796Y-60675198D01*
X130843796Y-60675198D02*
X130772367Y-60532341D01*
X130772367Y-60532341D02*
X130629510Y-60460912D01*
X130629510Y-60460912D02*
X130343796Y-60460912D01*
X130343796Y-60460912D02*
X130200938Y-60532341D01*
X130843796Y-61389484D02*
X130700938Y-61460912D01*
X130700938Y-61460912D02*
X130343796Y-61460912D01*
X130343796Y-61460912D02*
X130200938Y-61389484D01*
X130200938Y-61389484D02*
X130129510Y-61246626D01*
X130129510Y-61246626D02*
X130129510Y-61103769D01*
X130129510Y-61103769D02*
X130200938Y-60960912D01*
X130200938Y-60960912D02*
X130343796Y-60889484D01*
X130343796Y-60889484D02*
X130700938Y-60889484D01*
X130700938Y-60889484D02*
X130843796Y-60818055D01*
X131558081Y-61460912D02*
X131558081Y-59960912D01*
X131558081Y-60532341D02*
X131700939Y-60460912D01*
X131700939Y-60460912D02*
X131986653Y-60460912D01*
X131986653Y-60460912D02*
X132129510Y-60532341D01*
X132129510Y-60532341D02*
X132200939Y-60603769D01*
X132200939Y-60603769D02*
X132272367Y-60746626D01*
X132272367Y-60746626D02*
X132272367Y-61175198D01*
X132272367Y-61175198D02*
X132200939Y-61318055D01*
X132200939Y-61318055D02*
X132129510Y-61389484D01*
X132129510Y-61389484D02*
X131986653Y-61460912D01*
X131986653Y-61460912D02*
X131700939Y-61460912D01*
X131700939Y-61460912D02*
X131558081Y-61389484D01*
X133129510Y-61460912D02*
X132986653Y-61389484D01*
X132986653Y-61389484D02*
X132915224Y-61246626D01*
X132915224Y-61246626D02*
X132915224Y-59960912D01*
X134272367Y-61389484D02*
X134129510Y-61460912D01*
X134129510Y-61460912D02*
X133843796Y-61460912D01*
X133843796Y-61460912D02*
X133700938Y-61389484D01*
X133700938Y-61389484D02*
X133629510Y-61246626D01*
X133629510Y-61246626D02*
X133629510Y-60675198D01*
X133629510Y-60675198D02*
X133700938Y-60532341D01*
X133700938Y-60532341D02*
X133843796Y-60460912D01*
X133843796Y-60460912D02*
X134129510Y-60460912D01*
X134129510Y-60460912D02*
X134272367Y-60532341D01*
X134272367Y-60532341D02*
X134343796Y-60675198D01*
X134343796Y-60675198D02*
X134343796Y-60818055D01*
X134343796Y-60818055D02*
X133629510Y-60960912D01*
X98415225Y-63875828D02*
X97558082Y-63875828D01*
X97986653Y-63875828D02*
X97986653Y-62375828D01*
X97986653Y-62375828D02*
X97843796Y-62590114D01*
X97843796Y-62590114D02*
X97700939Y-62732971D01*
X97700939Y-62732971D02*
X97558082Y-62804400D01*
X99700939Y-62875828D02*
X99700939Y-63875828D01*
X99343796Y-62304400D02*
X98986653Y-63375828D01*
X98986653Y-63375828D02*
X99915224Y-63375828D01*
X100415224Y-62518685D02*
X100486652Y-62447257D01*
X100486652Y-62447257D02*
X100629510Y-62375828D01*
X100629510Y-62375828D02*
X100986652Y-62375828D01*
X100986652Y-62375828D02*
X101129510Y-62447257D01*
X101129510Y-62447257D02*
X101200938Y-62518685D01*
X101200938Y-62518685D02*
X101272367Y-62661542D01*
X101272367Y-62661542D02*
X101272367Y-62804400D01*
X101272367Y-62804400D02*
X101200938Y-63018685D01*
X101200938Y-63018685D02*
X100343795Y-63875828D01*
X100343795Y-63875828D02*
X101272367Y-63875828D01*
X102129509Y-63018685D02*
X101986652Y-62947257D01*
X101986652Y-62947257D02*
X101915223Y-62875828D01*
X101915223Y-62875828D02*
X101843795Y-62732971D01*
X101843795Y-62732971D02*
X101843795Y-62661542D01*
X101843795Y-62661542D02*
X101915223Y-62518685D01*
X101915223Y-62518685D02*
X101986652Y-62447257D01*
X101986652Y-62447257D02*
X102129509Y-62375828D01*
X102129509Y-62375828D02*
X102415223Y-62375828D01*
X102415223Y-62375828D02*
X102558081Y-62447257D01*
X102558081Y-62447257D02*
X102629509Y-62518685D01*
X102629509Y-62518685D02*
X102700938Y-62661542D01*
X102700938Y-62661542D02*
X102700938Y-62732971D01*
X102700938Y-62732971D02*
X102629509Y-62875828D01*
X102629509Y-62875828D02*
X102558081Y-62947257D01*
X102558081Y-62947257D02*
X102415223Y-63018685D01*
X102415223Y-63018685D02*
X102129509Y-63018685D01*
X102129509Y-63018685D02*
X101986652Y-63090114D01*
X101986652Y-63090114D02*
X101915223Y-63161542D01*
X101915223Y-63161542D02*
X101843795Y-63304400D01*
X101843795Y-63304400D02*
X101843795Y-63590114D01*
X101843795Y-63590114D02*
X101915223Y-63732971D01*
X101915223Y-63732971D02*
X101986652Y-63804400D01*
X101986652Y-63804400D02*
X102129509Y-63875828D01*
X102129509Y-63875828D02*
X102415223Y-63875828D01*
X102415223Y-63875828D02*
X102558081Y-63804400D01*
X102558081Y-63804400D02*
X102629509Y-63732971D01*
X102629509Y-63732971D02*
X102700938Y-63590114D01*
X102700938Y-63590114D02*
X102700938Y-63304400D01*
X102700938Y-63304400D02*
X102629509Y-63161542D01*
X102629509Y-63161542D02*
X102558081Y-63090114D01*
X102558081Y-63090114D02*
X102415223Y-63018685D01*
X103629509Y-62375828D02*
X103772366Y-62375828D01*
X103772366Y-62375828D02*
X103915223Y-62447257D01*
X103915223Y-62447257D02*
X103986652Y-62518685D01*
X103986652Y-62518685D02*
X104058080Y-62661542D01*
X104058080Y-62661542D02*
X104129509Y-62947257D01*
X104129509Y-62947257D02*
X104129509Y-63304400D01*
X104129509Y-63304400D02*
X104058080Y-63590114D01*
X104058080Y-63590114D02*
X103986652Y-63732971D01*
X103986652Y-63732971D02*
X103915223Y-63804400D01*
X103915223Y-63804400D02*
X103772366Y-63875828D01*
X103772366Y-63875828D02*
X103629509Y-63875828D01*
X103629509Y-63875828D02*
X103486652Y-63804400D01*
X103486652Y-63804400D02*
X103415223Y-63732971D01*
X103415223Y-63732971D02*
X103343794Y-63590114D01*
X103343794Y-63590114D02*
X103272366Y-63304400D01*
X103272366Y-63304400D02*
X103272366Y-62947257D01*
X103272366Y-62947257D02*
X103343794Y-62661542D01*
X103343794Y-62661542D02*
X103415223Y-62518685D01*
X103415223Y-62518685D02*
X103486652Y-62447257D01*
X103486652Y-62447257D02*
X103629509Y-62375828D01*
X105058080Y-62375828D02*
X105200937Y-62375828D01*
X105200937Y-62375828D02*
X105343794Y-62447257D01*
X105343794Y-62447257D02*
X105415223Y-62518685D01*
X105415223Y-62518685D02*
X105486651Y-62661542D01*
X105486651Y-62661542D02*
X105558080Y-62947257D01*
X105558080Y-62947257D02*
X105558080Y-63304400D01*
X105558080Y-63304400D02*
X105486651Y-63590114D01*
X105486651Y-63590114D02*
X105415223Y-63732971D01*
X105415223Y-63732971D02*
X105343794Y-63804400D01*
X105343794Y-63804400D02*
X105200937Y-63875828D01*
X105200937Y-63875828D02*
X105058080Y-63875828D01*
X105058080Y-63875828D02*
X104915223Y-63804400D01*
X104915223Y-63804400D02*
X104843794Y-63732971D01*
X104843794Y-63732971D02*
X104772365Y-63590114D01*
X104772365Y-63590114D02*
X104700937Y-63304400D01*
X104700937Y-63304400D02*
X104700937Y-62947257D01*
X104700937Y-62947257D02*
X104772365Y-62661542D01*
X104772365Y-62661542D02*
X104843794Y-62518685D01*
X104843794Y-62518685D02*
X104915223Y-62447257D01*
X104915223Y-62447257D02*
X105058080Y-62375828D01*
X106986651Y-63875828D02*
X106129508Y-63875828D01*
X106558079Y-63875828D02*
X106558079Y-62375828D01*
X106558079Y-62375828D02*
X106415222Y-62590114D01*
X106415222Y-62590114D02*
X106272365Y-62732971D01*
X106272365Y-62732971D02*
X106129508Y-62804400D01*
X107486650Y-62375828D02*
X108486650Y-62375828D01*
X108486650Y-62375828D02*
X107843793Y-63875828D01*
X98054510Y-54625828D02*
X98054510Y-55840114D01*
X98054510Y-55840114D02*
X98125939Y-55982971D01*
X98125939Y-55982971D02*
X98197368Y-56054400D01*
X98197368Y-56054400D02*
X98340225Y-56125828D01*
X98340225Y-56125828D02*
X98625939Y-56125828D01*
X98625939Y-56125828D02*
X98768796Y-56054400D01*
X98768796Y-56054400D02*
X98840225Y-55982971D01*
X98840225Y-55982971D02*
X98911653Y-55840114D01*
X98911653Y-55840114D02*
X98911653Y-54625828D01*
X99554511Y-56054400D02*
X99697368Y-56125828D01*
X99697368Y-56125828D02*
X99983082Y-56125828D01*
X99983082Y-56125828D02*
X100125939Y-56054400D01*
X100125939Y-56054400D02*
X100197368Y-55911542D01*
X100197368Y-55911542D02*
X100197368Y-55840114D01*
X100197368Y-55840114D02*
X100125939Y-55697257D01*
X100125939Y-55697257D02*
X99983082Y-55625828D01*
X99983082Y-55625828D02*
X99768797Y-55625828D01*
X99768797Y-55625828D02*
X99625939Y-55554400D01*
X99625939Y-55554400D02*
X99554511Y-55411542D01*
X99554511Y-55411542D02*
X99554511Y-55340114D01*
X99554511Y-55340114D02*
X99625939Y-55197257D01*
X99625939Y-55197257D02*
X99768797Y-55125828D01*
X99768797Y-55125828D02*
X99983082Y-55125828D01*
X99983082Y-55125828D02*
X100125939Y-55197257D01*
X101411654Y-56054400D02*
X101268797Y-56125828D01*
X101268797Y-56125828D02*
X100983083Y-56125828D01*
X100983083Y-56125828D02*
X100840225Y-56054400D01*
X100840225Y-56054400D02*
X100768797Y-55911542D01*
X100768797Y-55911542D02*
X100768797Y-55340114D01*
X100768797Y-55340114D02*
X100840225Y-55197257D01*
X100840225Y-55197257D02*
X100983083Y-55125828D01*
X100983083Y-55125828D02*
X101268797Y-55125828D01*
X101268797Y-55125828D02*
X101411654Y-55197257D01*
X101411654Y-55197257D02*
X101483083Y-55340114D01*
X101483083Y-55340114D02*
X101483083Y-55482971D01*
X101483083Y-55482971D02*
X100768797Y-55625828D01*
X103125939Y-55125828D02*
X103411654Y-56125828D01*
X103411654Y-56125828D02*
X103697368Y-55411542D01*
X103697368Y-55411542D02*
X103983082Y-56125828D01*
X103983082Y-56125828D02*
X104268796Y-55125828D01*
X104840225Y-56125828D02*
X104840225Y-55125828D01*
X104840225Y-54625828D02*
X104768797Y-54697257D01*
X104768797Y-54697257D02*
X104840225Y-54768685D01*
X104840225Y-54768685D02*
X104911654Y-54697257D01*
X104911654Y-54697257D02*
X104840225Y-54625828D01*
X104840225Y-54625828D02*
X104840225Y-54768685D01*
X105340226Y-55125828D02*
X105911654Y-55125828D01*
X105554511Y-54625828D02*
X105554511Y-55911542D01*
X105554511Y-55911542D02*
X105625940Y-56054400D01*
X105625940Y-56054400D02*
X105768797Y-56125828D01*
X105768797Y-56125828D02*
X105911654Y-56125828D01*
X106411654Y-56125828D02*
X106411654Y-54625828D01*
X107054512Y-56125828D02*
X107054512Y-55340114D01*
X107054512Y-55340114D02*
X106983083Y-55197257D01*
X106983083Y-55197257D02*
X106840226Y-55125828D01*
X106840226Y-55125828D02*
X106625940Y-55125828D01*
X106625940Y-55125828D02*
X106483083Y-55197257D01*
X106483083Y-55197257D02*
X106411654Y-55268685D01*
X109197369Y-54625828D02*
X109340226Y-54625828D01*
X109340226Y-54625828D02*
X109483083Y-54697257D01*
X109483083Y-54697257D02*
X109554512Y-54768685D01*
X109554512Y-54768685D02*
X109625940Y-54911542D01*
X109625940Y-54911542D02*
X109697369Y-55197257D01*
X109697369Y-55197257D02*
X109697369Y-55554400D01*
X109697369Y-55554400D02*
X109625940Y-55840114D01*
X109625940Y-55840114D02*
X109554512Y-55982971D01*
X109554512Y-55982971D02*
X109483083Y-56054400D01*
X109483083Y-56054400D02*
X109340226Y-56125828D01*
X109340226Y-56125828D02*
X109197369Y-56125828D01*
X109197369Y-56125828D02*
X109054512Y-56054400D01*
X109054512Y-56054400D02*
X108983083Y-55982971D01*
X108983083Y-55982971D02*
X108911654Y-55840114D01*
X108911654Y-55840114D02*
X108840226Y-55554400D01*
X108840226Y-55554400D02*
X108840226Y-55197257D01*
X108840226Y-55197257D02*
X108911654Y-54911542D01*
X108911654Y-54911542D02*
X108983083Y-54768685D01*
X108983083Y-54768685D02*
X109054512Y-54697257D01*
X109054512Y-54697257D02*
X109197369Y-54625828D01*
X110340225Y-55982971D02*
X110411654Y-56054400D01*
X110411654Y-56054400D02*
X110340225Y-56125828D01*
X110340225Y-56125828D02*
X110268797Y-56054400D01*
X110268797Y-56054400D02*
X110340225Y-55982971D01*
X110340225Y-55982971D02*
X110340225Y-56125828D01*
X110911654Y-54625828D02*
X111840226Y-54625828D01*
X111840226Y-54625828D02*
X111340226Y-55197257D01*
X111340226Y-55197257D02*
X111554511Y-55197257D01*
X111554511Y-55197257D02*
X111697369Y-55268685D01*
X111697369Y-55268685D02*
X111768797Y-55340114D01*
X111768797Y-55340114D02*
X111840226Y-55482971D01*
X111840226Y-55482971D02*
X111840226Y-55840114D01*
X111840226Y-55840114D02*
X111768797Y-55982971D01*
X111768797Y-55982971D02*
X111697369Y-56054400D01*
X111697369Y-56054400D02*
X111554511Y-56125828D01*
X111554511Y-56125828D02*
X111125940Y-56125828D01*
X111125940Y-56125828D02*
X110983083Y-56054400D01*
X110983083Y-56054400D02*
X110911654Y-55982971D01*
X112483082Y-56125828D02*
X112483082Y-55125828D01*
X112483082Y-55268685D02*
X112554511Y-55197257D01*
X112554511Y-55197257D02*
X112697368Y-55125828D01*
X112697368Y-55125828D02*
X112911654Y-55125828D01*
X112911654Y-55125828D02*
X113054511Y-55197257D01*
X113054511Y-55197257D02*
X113125940Y-55340114D01*
X113125940Y-55340114D02*
X113125940Y-56125828D01*
X113125940Y-55340114D02*
X113197368Y-55197257D01*
X113197368Y-55197257D02*
X113340225Y-55125828D01*
X113340225Y-55125828D02*
X113554511Y-55125828D01*
X113554511Y-55125828D02*
X113697368Y-55197257D01*
X113697368Y-55197257D02*
X113768797Y-55340114D01*
X113768797Y-55340114D02*
X113768797Y-56125828D01*
X114483082Y-56125828D02*
X114483082Y-55125828D01*
X114483082Y-55268685D02*
X114554511Y-55197257D01*
X114554511Y-55197257D02*
X114697368Y-55125828D01*
X114697368Y-55125828D02*
X114911654Y-55125828D01*
X114911654Y-55125828D02*
X115054511Y-55197257D01*
X115054511Y-55197257D02*
X115125940Y-55340114D01*
X115125940Y-55340114D02*
X115125940Y-56125828D01*
X115125940Y-55340114D02*
X115197368Y-55197257D01*
X115197368Y-55197257D02*
X115340225Y-55125828D01*
X115340225Y-55125828D02*
X115554511Y-55125828D01*
X115554511Y-55125828D02*
X115697368Y-55197257D01*
X115697368Y-55197257D02*
X115768797Y-55340114D01*
X115768797Y-55340114D02*
X115768797Y-56125828D01*
X117411654Y-55125828D02*
X117983082Y-55125828D01*
X117625939Y-54625828D02*
X117625939Y-55911542D01*
X117625939Y-55911542D02*
X117697368Y-56054400D01*
X117697368Y-56054400D02*
X117840225Y-56125828D01*
X117840225Y-56125828D02*
X117983082Y-56125828D01*
X118483082Y-56125828D02*
X118483082Y-54625828D01*
X119125940Y-56125828D02*
X119125940Y-55340114D01*
X119125940Y-55340114D02*
X119054511Y-55197257D01*
X119054511Y-55197257D02*
X118911654Y-55125828D01*
X118911654Y-55125828D02*
X118697368Y-55125828D01*
X118697368Y-55125828D02*
X118554511Y-55197257D01*
X118554511Y-55197257D02*
X118483082Y-55268685D01*
X119840225Y-56125828D02*
X119840225Y-55125828D01*
X119840225Y-54625828D02*
X119768797Y-54697257D01*
X119768797Y-54697257D02*
X119840225Y-54768685D01*
X119840225Y-54768685D02*
X119911654Y-54697257D01*
X119911654Y-54697257D02*
X119840225Y-54625828D01*
X119840225Y-54625828D02*
X119840225Y-54768685D01*
X121197369Y-56054400D02*
X121054511Y-56125828D01*
X121054511Y-56125828D02*
X120768797Y-56125828D01*
X120768797Y-56125828D02*
X120625940Y-56054400D01*
X120625940Y-56054400D02*
X120554511Y-55982971D01*
X120554511Y-55982971D02*
X120483083Y-55840114D01*
X120483083Y-55840114D02*
X120483083Y-55411542D01*
X120483083Y-55411542D02*
X120554511Y-55268685D01*
X120554511Y-55268685D02*
X120625940Y-55197257D01*
X120625940Y-55197257D02*
X120768797Y-55125828D01*
X120768797Y-55125828D02*
X121054511Y-55125828D01*
X121054511Y-55125828D02*
X121197369Y-55197257D01*
X121840225Y-56125828D02*
X121840225Y-54625828D01*
X121983083Y-55554400D02*
X122411654Y-56125828D01*
X122411654Y-55125828D02*
X121840225Y-55697257D01*
X124697368Y-55340114D02*
X124197368Y-55340114D01*
X124197368Y-56125828D02*
X124197368Y-54625828D01*
X124197368Y-54625828D02*
X124911654Y-54625828D01*
X125983082Y-55340114D02*
X125483082Y-55340114D01*
X125483082Y-56125828D02*
X125483082Y-54625828D01*
X125483082Y-54625828D02*
X126197368Y-54625828D01*
X127625939Y-55982971D02*
X127554511Y-56054400D01*
X127554511Y-56054400D02*
X127340225Y-56125828D01*
X127340225Y-56125828D02*
X127197368Y-56125828D01*
X127197368Y-56125828D02*
X126983082Y-56054400D01*
X126983082Y-56054400D02*
X126840225Y-55911542D01*
X126840225Y-55911542D02*
X126768796Y-55768685D01*
X126768796Y-55768685D02*
X126697368Y-55482971D01*
X126697368Y-55482971D02*
X126697368Y-55268685D01*
X126697368Y-55268685D02*
X126768796Y-54982971D01*
X126768796Y-54982971D02*
X126840225Y-54840114D01*
X126840225Y-54840114D02*
X126983082Y-54697257D01*
X126983082Y-54697257D02*
X127197368Y-54625828D01*
X127197368Y-54625828D02*
X127340225Y-54625828D01*
X127340225Y-54625828D02*
X127554511Y-54697257D01*
X127554511Y-54697257D02*
X127625939Y-54768685D01*
X129411653Y-55982971D02*
X129483082Y-56054400D01*
X129483082Y-56054400D02*
X129411653Y-56125828D01*
X129411653Y-56125828D02*
X129340225Y-56054400D01*
X129340225Y-56054400D02*
X129411653Y-55982971D01*
X129411653Y-55982971D02*
X129411653Y-56125828D01*
X131840225Y-56054400D02*
X131697368Y-56125828D01*
X131697368Y-56125828D02*
X131411654Y-56125828D01*
X131411654Y-56125828D02*
X131268796Y-56054400D01*
X131268796Y-56054400D02*
X131197368Y-55911542D01*
X131197368Y-55911542D02*
X131197368Y-55340114D01*
X131197368Y-55340114D02*
X131268796Y-55197257D01*
X131268796Y-55197257D02*
X131411654Y-55125828D01*
X131411654Y-55125828D02*
X131697368Y-55125828D01*
X131697368Y-55125828D02*
X131840225Y-55197257D01*
X131840225Y-55197257D02*
X131911654Y-55340114D01*
X131911654Y-55340114D02*
X131911654Y-55482971D01*
X131911654Y-55482971D02*
X131197368Y-55625828D01*
X132554510Y-55982971D02*
X132625939Y-56054400D01*
X132625939Y-56054400D02*
X132554510Y-56125828D01*
X132554510Y-56125828D02*
X132483082Y-56054400D01*
X132483082Y-56054400D02*
X132554510Y-55982971D01*
X132554510Y-55982971D02*
X132554510Y-56125828D01*
X133911654Y-55125828D02*
X133911654Y-56340114D01*
X133911654Y-56340114D02*
X133840225Y-56482971D01*
X133840225Y-56482971D02*
X133768796Y-56554400D01*
X133768796Y-56554400D02*
X133625939Y-56625828D01*
X133625939Y-56625828D02*
X133411654Y-56625828D01*
X133411654Y-56625828D02*
X133268796Y-56554400D01*
X133911654Y-56054400D02*
X133768796Y-56125828D01*
X133768796Y-56125828D02*
X133483082Y-56125828D01*
X133483082Y-56125828D02*
X133340225Y-56054400D01*
X133340225Y-56054400D02*
X133268796Y-55982971D01*
X133268796Y-55982971D02*
X133197368Y-55840114D01*
X133197368Y-55840114D02*
X133197368Y-55411542D01*
X133197368Y-55411542D02*
X133268796Y-55268685D01*
X133268796Y-55268685D02*
X133340225Y-55197257D01*
X133340225Y-55197257D02*
X133483082Y-55125828D01*
X133483082Y-55125828D02*
X133768796Y-55125828D01*
X133768796Y-55125828D02*
X133911654Y-55197257D01*
X134625939Y-55982971D02*
X134697368Y-56054400D01*
X134697368Y-56054400D02*
X134625939Y-56125828D01*
X134625939Y-56125828D02*
X134554511Y-56054400D01*
X134554511Y-56054400D02*
X134625939Y-55982971D01*
X134625939Y-55982971D02*
X134625939Y-56125828D01*
X136483082Y-56125828D02*
X136483082Y-54625828D01*
X136483082Y-54625828D02*
X136983082Y-55697257D01*
X136983082Y-55697257D02*
X137483082Y-54625828D01*
X137483082Y-54625828D02*
X137483082Y-56125828D01*
X138411654Y-56125828D02*
X138268797Y-56054400D01*
X138268797Y-56054400D02*
X138197368Y-55982971D01*
X138197368Y-55982971D02*
X138125940Y-55840114D01*
X138125940Y-55840114D02*
X138125940Y-55411542D01*
X138125940Y-55411542D02*
X138197368Y-55268685D01*
X138197368Y-55268685D02*
X138268797Y-55197257D01*
X138268797Y-55197257D02*
X138411654Y-55125828D01*
X138411654Y-55125828D02*
X138625940Y-55125828D01*
X138625940Y-55125828D02*
X138768797Y-55197257D01*
X138768797Y-55197257D02*
X138840226Y-55268685D01*
X138840226Y-55268685D02*
X138911654Y-55411542D01*
X138911654Y-55411542D02*
X138911654Y-55840114D01*
X138911654Y-55840114D02*
X138840226Y-55982971D01*
X138840226Y-55982971D02*
X138768797Y-56054400D01*
X138768797Y-56054400D02*
X138625940Y-56125828D01*
X138625940Y-56125828D02*
X138411654Y-56125828D01*
X139768797Y-56125828D02*
X139625940Y-56054400D01*
X139625940Y-56054400D02*
X139554511Y-55911542D01*
X139554511Y-55911542D02*
X139554511Y-54625828D01*
X140911654Y-56054400D02*
X140768797Y-56125828D01*
X140768797Y-56125828D02*
X140483083Y-56125828D01*
X140483083Y-56125828D02*
X140340225Y-56054400D01*
X140340225Y-56054400D02*
X140268797Y-55911542D01*
X140268797Y-55911542D02*
X140268797Y-55340114D01*
X140268797Y-55340114D02*
X140340225Y-55197257D01*
X140340225Y-55197257D02*
X140483083Y-55125828D01*
X140483083Y-55125828D02*
X140768797Y-55125828D01*
X140768797Y-55125828D02*
X140911654Y-55197257D01*
X140911654Y-55197257D02*
X140983083Y-55340114D01*
X140983083Y-55340114D02*
X140983083Y-55482971D01*
X140983083Y-55482971D02*
X140268797Y-55625828D01*
X141483082Y-56125828D02*
X142268797Y-55125828D01*
X141483082Y-55125828D02*
X142268797Y-56125828D01*
X144054511Y-56125828D02*
X144340225Y-56125828D01*
X144340225Y-56125828D02*
X144483082Y-56054400D01*
X144483082Y-56054400D02*
X144554511Y-55982971D01*
X144554511Y-55982971D02*
X144697368Y-55768685D01*
X144697368Y-55768685D02*
X144768797Y-55482971D01*
X144768797Y-55482971D02*
X144768797Y-54911542D01*
X144768797Y-54911542D02*
X144697368Y-54768685D01*
X144697368Y-54768685D02*
X144625940Y-54697257D01*
X144625940Y-54697257D02*
X144483082Y-54625828D01*
X144483082Y-54625828D02*
X144197368Y-54625828D01*
X144197368Y-54625828D02*
X144054511Y-54697257D01*
X144054511Y-54697257D02*
X143983082Y-54768685D01*
X143983082Y-54768685D02*
X143911654Y-54911542D01*
X143911654Y-54911542D02*
X143911654Y-55268685D01*
X143911654Y-55268685D02*
X143983082Y-55411542D01*
X143983082Y-55411542D02*
X144054511Y-55482971D01*
X144054511Y-55482971D02*
X144197368Y-55554400D01*
X144197368Y-55554400D02*
X144483082Y-55554400D01*
X144483082Y-55554400D02*
X144625940Y-55482971D01*
X144625940Y-55482971D02*
X144697368Y-55411542D01*
X144697368Y-55411542D02*
X144768797Y-55268685D01*
X145625939Y-55268685D02*
X145483082Y-55197257D01*
X145483082Y-55197257D02*
X145411653Y-55125828D01*
X145411653Y-55125828D02*
X145340225Y-54982971D01*
X145340225Y-54982971D02*
X145340225Y-54911542D01*
X145340225Y-54911542D02*
X145411653Y-54768685D01*
X145411653Y-54768685D02*
X145483082Y-54697257D01*
X145483082Y-54697257D02*
X145625939Y-54625828D01*
X145625939Y-54625828D02*
X145911653Y-54625828D01*
X145911653Y-54625828D02*
X146054511Y-54697257D01*
X146054511Y-54697257D02*
X146125939Y-54768685D01*
X146125939Y-54768685D02*
X146197368Y-54911542D01*
X146197368Y-54911542D02*
X146197368Y-54982971D01*
X146197368Y-54982971D02*
X146125939Y-55125828D01*
X146125939Y-55125828D02*
X146054511Y-55197257D01*
X146054511Y-55197257D02*
X145911653Y-55268685D01*
X145911653Y-55268685D02*
X145625939Y-55268685D01*
X145625939Y-55268685D02*
X145483082Y-55340114D01*
X145483082Y-55340114D02*
X145411653Y-55411542D01*
X145411653Y-55411542D02*
X145340225Y-55554400D01*
X145340225Y-55554400D02*
X145340225Y-55840114D01*
X145340225Y-55840114D02*
X145411653Y-55982971D01*
X145411653Y-55982971D02*
X145483082Y-56054400D01*
X145483082Y-56054400D02*
X145625939Y-56125828D01*
X145625939Y-56125828D02*
X145911653Y-56125828D01*
X145911653Y-56125828D02*
X146054511Y-56054400D01*
X146054511Y-56054400D02*
X146125939Y-55982971D01*
X146125939Y-55982971D02*
X146197368Y-55840114D01*
X146197368Y-55840114D02*
X146197368Y-55554400D01*
X146197368Y-55554400D02*
X146125939Y-55411542D01*
X146125939Y-55411542D02*
X146054511Y-55340114D01*
X146054511Y-55340114D02*
X145911653Y-55268685D01*
X146768796Y-54768685D02*
X146840224Y-54697257D01*
X146840224Y-54697257D02*
X146983082Y-54625828D01*
X146983082Y-54625828D02*
X147340224Y-54625828D01*
X147340224Y-54625828D02*
X147483082Y-54697257D01*
X147483082Y-54697257D02*
X147554510Y-54768685D01*
X147554510Y-54768685D02*
X147625939Y-54911542D01*
X147625939Y-54911542D02*
X147625939Y-55054400D01*
X147625939Y-55054400D02*
X147554510Y-55268685D01*
X147554510Y-55268685D02*
X146697367Y-56125828D01*
X146697367Y-56125828D02*
X147625939Y-56125828D01*
X148911653Y-54625828D02*
X148625938Y-54625828D01*
X148625938Y-54625828D02*
X148483081Y-54697257D01*
X148483081Y-54697257D02*
X148411653Y-54768685D01*
X148411653Y-54768685D02*
X148268795Y-54982971D01*
X148268795Y-54982971D02*
X148197367Y-55268685D01*
X148197367Y-55268685D02*
X148197367Y-55840114D01*
X148197367Y-55840114D02*
X148268795Y-55982971D01*
X148268795Y-55982971D02*
X148340224Y-56054400D01*
X148340224Y-56054400D02*
X148483081Y-56125828D01*
X148483081Y-56125828D02*
X148768795Y-56125828D01*
X148768795Y-56125828D02*
X148911653Y-56054400D01*
X148911653Y-56054400D02*
X148983081Y-55982971D01*
X148983081Y-55982971D02*
X149054510Y-55840114D01*
X149054510Y-55840114D02*
X149054510Y-55482971D01*
X149054510Y-55482971D02*
X148983081Y-55340114D01*
X148983081Y-55340114D02*
X148911653Y-55268685D01*
X148911653Y-55268685D02*
X148768795Y-55197257D01*
X148768795Y-55197257D02*
X148483081Y-55197257D01*
X148483081Y-55197257D02*
X148340224Y-55268685D01*
X148340224Y-55268685D02*
X148268795Y-55340114D01*
X148268795Y-55340114D02*
X148197367Y-55482971D01*
X150340224Y-54625828D02*
X150054509Y-54625828D01*
X150054509Y-54625828D02*
X149911652Y-54697257D01*
X149911652Y-54697257D02*
X149840224Y-54768685D01*
X149840224Y-54768685D02*
X149697366Y-54982971D01*
X149697366Y-54982971D02*
X149625938Y-55268685D01*
X149625938Y-55268685D02*
X149625938Y-55840114D01*
X149625938Y-55840114D02*
X149697366Y-55982971D01*
X149697366Y-55982971D02*
X149768795Y-56054400D01*
X149768795Y-56054400D02*
X149911652Y-56125828D01*
X149911652Y-56125828D02*
X150197366Y-56125828D01*
X150197366Y-56125828D02*
X150340224Y-56054400D01*
X150340224Y-56054400D02*
X150411652Y-55982971D01*
X150411652Y-55982971D02*
X150483081Y-55840114D01*
X150483081Y-55840114D02*
X150483081Y-55482971D01*
X150483081Y-55482971D02*
X150411652Y-55340114D01*
X150411652Y-55340114D02*
X150340224Y-55268685D01*
X150340224Y-55268685D02*
X150197366Y-55197257D01*
X150197366Y-55197257D02*
X149911652Y-55197257D01*
X149911652Y-55197257D02*
X149768795Y-55268685D01*
X149768795Y-55268685D02*
X149697366Y-55340114D01*
X149697366Y-55340114D02*
X149625938Y-55482971D01*
X151125937Y-55554400D02*
X152268795Y-55554400D01*
X153268795Y-54625828D02*
X153411652Y-54625828D01*
X153411652Y-54625828D02*
X153554509Y-54697257D01*
X153554509Y-54697257D02*
X153625938Y-54768685D01*
X153625938Y-54768685D02*
X153697366Y-54911542D01*
X153697366Y-54911542D02*
X153768795Y-55197257D01*
X153768795Y-55197257D02*
X153768795Y-55554400D01*
X153768795Y-55554400D02*
X153697366Y-55840114D01*
X153697366Y-55840114D02*
X153625938Y-55982971D01*
X153625938Y-55982971D02*
X153554509Y-56054400D01*
X153554509Y-56054400D02*
X153411652Y-56125828D01*
X153411652Y-56125828D02*
X153268795Y-56125828D01*
X153268795Y-56125828D02*
X153125938Y-56054400D01*
X153125938Y-56054400D02*
X153054509Y-55982971D01*
X153054509Y-55982971D02*
X152983080Y-55840114D01*
X152983080Y-55840114D02*
X152911652Y-55554400D01*
X152911652Y-55554400D02*
X152911652Y-55197257D01*
X152911652Y-55197257D02*
X152983080Y-54911542D01*
X152983080Y-54911542D02*
X153054509Y-54768685D01*
X153054509Y-54768685D02*
X153125938Y-54697257D01*
X153125938Y-54697257D02*
X153268795Y-54625828D01*
X155197366Y-56125828D02*
X154340223Y-56125828D01*
X154768794Y-56125828D02*
X154768794Y-54625828D01*
X154768794Y-54625828D02*
X154625937Y-54840114D01*
X154625937Y-54840114D02*
X154483080Y-54982971D01*
X154483080Y-54982971D02*
X154340223Y-55054400D01*
X156125937Y-54625828D02*
X156268794Y-54625828D01*
X156268794Y-54625828D02*
X156411651Y-54697257D01*
X156411651Y-54697257D02*
X156483080Y-54768685D01*
X156483080Y-54768685D02*
X156554508Y-54911542D01*
X156554508Y-54911542D02*
X156625937Y-55197257D01*
X156625937Y-55197257D02*
X156625937Y-55554400D01*
X156625937Y-55554400D02*
X156554508Y-55840114D01*
X156554508Y-55840114D02*
X156483080Y-55982971D01*
X156483080Y-55982971D02*
X156411651Y-56054400D01*
X156411651Y-56054400D02*
X156268794Y-56125828D01*
X156268794Y-56125828D02*
X156125937Y-56125828D01*
X156125937Y-56125828D02*
X155983080Y-56054400D01*
X155983080Y-56054400D02*
X155911651Y-55982971D01*
X155911651Y-55982971D02*
X155840222Y-55840114D01*
X155840222Y-55840114D02*
X155768794Y-55554400D01*
X155768794Y-55554400D02*
X155768794Y-55197257D01*
X155768794Y-55197257D02*
X155840222Y-54911542D01*
X155840222Y-54911542D02*
X155911651Y-54768685D01*
X155911651Y-54768685D02*
X155983080Y-54697257D01*
X155983080Y-54697257D02*
X156125937Y-54625828D01*
X157983079Y-54625828D02*
X157268793Y-54625828D01*
X157268793Y-54625828D02*
X157197365Y-55340114D01*
X157197365Y-55340114D02*
X157268793Y-55268685D01*
X157268793Y-55268685D02*
X157411651Y-55197257D01*
X157411651Y-55197257D02*
X157768793Y-55197257D01*
X157768793Y-55197257D02*
X157911651Y-55268685D01*
X157911651Y-55268685D02*
X157983079Y-55340114D01*
X157983079Y-55340114D02*
X158054508Y-55482971D01*
X158054508Y-55482971D02*
X158054508Y-55840114D01*
X158054508Y-55840114D02*
X157983079Y-55982971D01*
X157983079Y-55982971D02*
X157911651Y-56054400D01*
X157911651Y-56054400D02*
X157768793Y-56125828D01*
X157768793Y-56125828D02*
X157411651Y-56125828D01*
X157411651Y-56125828D02*
X157268793Y-56054400D01*
X157268793Y-56054400D02*
X157197365Y-55982971D01*
M02*
