%TF.GenerationSoftware,KiCad,Pcbnew,10.0.1*%
%TF.CreationDate,2026-09-29T15:39:54+01:00*%
%TF.ProjectId,pc080,70633038-302e-46b6-9963-61645f706362,rev?*%
%TF.SameCoordinates,Original*%
%TF.FileFunction,Legend,Bot*%
%TF.FilePolarity,Positive*%
%FSLAX46Y46*%
G04 Gerber Fmt 4.6, Leading zero omitted, Abs format (unit mm)*
G04 Created by KiCad (PCBNEW 10.0.1) date 2026-09-29 15:39:54*
%MOMM*%
%LPD*%
G01*
G04 APERTURE LIST*
%ADD10C,0.300000*%
%ADD11C,0.200000*%
G04 APERTURE END LIST*
D10*
X155095489Y-69235912D02*
X155095489Y-70735912D01*
X155095489Y-69307341D02*
X154952632Y-69235912D01*
X154952632Y-69235912D02*
X154666917Y-69235912D01*
X154666917Y-69235912D02*
X154524060Y-69307341D01*
X154524060Y-69307341D02*
X154452632Y-69378769D01*
X154452632Y-69378769D02*
X154381203Y-69521626D01*
X154381203Y-69521626D02*
X154381203Y-69950198D01*
X154381203Y-69950198D02*
X154452632Y-70093055D01*
X154452632Y-70093055D02*
X154524060Y-70164484D01*
X154524060Y-70164484D02*
X154666917Y-70235912D01*
X154666917Y-70235912D02*
X154952632Y-70235912D01*
X154952632Y-70235912D02*
X155095489Y-70164484D01*
X153095489Y-70164484D02*
X153238346Y-70235912D01*
X153238346Y-70235912D02*
X153524060Y-70235912D01*
X153524060Y-70235912D02*
X153666917Y-70164484D01*
X153666917Y-70164484D02*
X153738346Y-70093055D01*
X153738346Y-70093055D02*
X153809774Y-69950198D01*
X153809774Y-69950198D02*
X153809774Y-69521626D01*
X153809774Y-69521626D02*
X153738346Y-69378769D01*
X153738346Y-69378769D02*
X153666917Y-69307341D01*
X153666917Y-69307341D02*
X153524060Y-69235912D01*
X153524060Y-69235912D02*
X153238346Y-69235912D01*
X153238346Y-69235912D02*
X153095489Y-69307341D01*
X152166917Y-68735912D02*
X152024060Y-68735912D01*
X152024060Y-68735912D02*
X151881203Y-68807341D01*
X151881203Y-68807341D02*
X151809775Y-68878769D01*
X151809775Y-68878769D02*
X151738346Y-69021626D01*
X151738346Y-69021626D02*
X151666917Y-69307341D01*
X151666917Y-69307341D02*
X151666917Y-69664484D01*
X151666917Y-69664484D02*
X151738346Y-69950198D01*
X151738346Y-69950198D02*
X151809775Y-70093055D01*
X151809775Y-70093055D02*
X151881203Y-70164484D01*
X151881203Y-70164484D02*
X152024060Y-70235912D01*
X152024060Y-70235912D02*
X152166917Y-70235912D01*
X152166917Y-70235912D02*
X152309775Y-70164484D01*
X152309775Y-70164484D02*
X152381203Y-70093055D01*
X152381203Y-70093055D02*
X152452632Y-69950198D01*
X152452632Y-69950198D02*
X152524060Y-69664484D01*
X152524060Y-69664484D02*
X152524060Y-69307341D01*
X152524060Y-69307341D02*
X152452632Y-69021626D01*
X152452632Y-69021626D02*
X152381203Y-68878769D01*
X152381203Y-68878769D02*
X152309775Y-68807341D01*
X152309775Y-68807341D02*
X152166917Y-68735912D01*
X150809775Y-69378769D02*
X150952632Y-69307341D01*
X150952632Y-69307341D02*
X151024061Y-69235912D01*
X151024061Y-69235912D02*
X151095489Y-69093055D01*
X151095489Y-69093055D02*
X151095489Y-69021626D01*
X151095489Y-69021626D02*
X151024061Y-68878769D01*
X151024061Y-68878769D02*
X150952632Y-68807341D01*
X150952632Y-68807341D02*
X150809775Y-68735912D01*
X150809775Y-68735912D02*
X150524061Y-68735912D01*
X150524061Y-68735912D02*
X150381204Y-68807341D01*
X150381204Y-68807341D02*
X150309775Y-68878769D01*
X150309775Y-68878769D02*
X150238346Y-69021626D01*
X150238346Y-69021626D02*
X150238346Y-69093055D01*
X150238346Y-69093055D02*
X150309775Y-69235912D01*
X150309775Y-69235912D02*
X150381204Y-69307341D01*
X150381204Y-69307341D02*
X150524061Y-69378769D01*
X150524061Y-69378769D02*
X150809775Y-69378769D01*
X150809775Y-69378769D02*
X150952632Y-69450198D01*
X150952632Y-69450198D02*
X151024061Y-69521626D01*
X151024061Y-69521626D02*
X151095489Y-69664484D01*
X151095489Y-69664484D02*
X151095489Y-69950198D01*
X151095489Y-69950198D02*
X151024061Y-70093055D01*
X151024061Y-70093055D02*
X150952632Y-70164484D01*
X150952632Y-70164484D02*
X150809775Y-70235912D01*
X150809775Y-70235912D02*
X150524061Y-70235912D01*
X150524061Y-70235912D02*
X150381204Y-70164484D01*
X150381204Y-70164484D02*
X150309775Y-70093055D01*
X150309775Y-70093055D02*
X150238346Y-69950198D01*
X150238346Y-69950198D02*
X150238346Y-69664484D01*
X150238346Y-69664484D02*
X150309775Y-69521626D01*
X150309775Y-69521626D02*
X150381204Y-69450198D01*
X150381204Y-69450198D02*
X150524061Y-69378769D01*
X149309775Y-68735912D02*
X149166918Y-68735912D01*
X149166918Y-68735912D02*
X149024061Y-68807341D01*
X149024061Y-68807341D02*
X148952633Y-68878769D01*
X148952633Y-68878769D02*
X148881204Y-69021626D01*
X148881204Y-69021626D02*
X148809775Y-69307341D01*
X148809775Y-69307341D02*
X148809775Y-69664484D01*
X148809775Y-69664484D02*
X148881204Y-69950198D01*
X148881204Y-69950198D02*
X148952633Y-70093055D01*
X148952633Y-70093055D02*
X149024061Y-70164484D01*
X149024061Y-70164484D02*
X149166918Y-70235912D01*
X149166918Y-70235912D02*
X149309775Y-70235912D01*
X149309775Y-70235912D02*
X149452633Y-70164484D01*
X149452633Y-70164484D02*
X149524061Y-70093055D01*
X149524061Y-70093055D02*
X149595490Y-69950198D01*
X149595490Y-69950198D02*
X149666918Y-69664484D01*
X149666918Y-69664484D02*
X149666918Y-69307341D01*
X149666918Y-69307341D02*
X149595490Y-69021626D01*
X149595490Y-69021626D02*
X149524061Y-68878769D01*
X149524061Y-68878769D02*
X149452633Y-68807341D01*
X149452633Y-68807341D02*
X149309775Y-68735912D01*
X148524062Y-70378769D02*
X147381204Y-70378769D01*
X147095490Y-70164484D02*
X146952633Y-70235912D01*
X146952633Y-70235912D02*
X146666919Y-70235912D01*
X146666919Y-70235912D02*
X146524062Y-70164484D01*
X146524062Y-70164484D02*
X146452633Y-70021626D01*
X146452633Y-70021626D02*
X146452633Y-69950198D01*
X146452633Y-69950198D02*
X146524062Y-69807341D01*
X146524062Y-69807341D02*
X146666919Y-69735912D01*
X146666919Y-69735912D02*
X146881205Y-69735912D01*
X146881205Y-69735912D02*
X147024062Y-69664484D01*
X147024062Y-69664484D02*
X147095490Y-69521626D01*
X147095490Y-69521626D02*
X147095490Y-69450198D01*
X147095490Y-69450198D02*
X147024062Y-69307341D01*
X147024062Y-69307341D02*
X146881205Y-69235912D01*
X146881205Y-69235912D02*
X146666919Y-69235912D01*
X146666919Y-69235912D02*
X146524062Y-69307341D01*
X146024061Y-69235912D02*
X145452633Y-69235912D01*
X145809776Y-70235912D02*
X145809776Y-68950198D01*
X145809776Y-68950198D02*
X145738347Y-68807341D01*
X145738347Y-68807341D02*
X145595490Y-68735912D01*
X145595490Y-68735912D02*
X145452633Y-68735912D01*
X144952633Y-69235912D02*
X144952633Y-70735912D01*
X144952633Y-69307341D02*
X144809776Y-69235912D01*
X144809776Y-69235912D02*
X144524061Y-69235912D01*
X144524061Y-69235912D02*
X144381204Y-69307341D01*
X144381204Y-69307341D02*
X144309776Y-69378769D01*
X144309776Y-69378769D02*
X144238347Y-69521626D01*
X144238347Y-69521626D02*
X144238347Y-69950198D01*
X144238347Y-69950198D02*
X144309776Y-70093055D01*
X144309776Y-70093055D02*
X144381204Y-70164484D01*
X144381204Y-70164484D02*
X144524061Y-70235912D01*
X144524061Y-70235912D02*
X144809776Y-70235912D01*
X144809776Y-70235912D02*
X144952633Y-70164484D01*
X143952633Y-70378769D02*
X142809775Y-70378769D01*
X142452633Y-69235912D02*
X142452633Y-70735912D01*
X142452633Y-69307341D02*
X142309776Y-69235912D01*
X142309776Y-69235912D02*
X142024061Y-69235912D01*
X142024061Y-69235912D02*
X141881204Y-69307341D01*
X141881204Y-69307341D02*
X141809776Y-69378769D01*
X141809776Y-69378769D02*
X141738347Y-69521626D01*
X141738347Y-69521626D02*
X141738347Y-69950198D01*
X141738347Y-69950198D02*
X141809776Y-70093055D01*
X141809776Y-70093055D02*
X141881204Y-70164484D01*
X141881204Y-70164484D02*
X142024061Y-70235912D01*
X142024061Y-70235912D02*
X142309776Y-70235912D01*
X142309776Y-70235912D02*
X142452633Y-70164484D01*
X140881204Y-70235912D02*
X141024061Y-70164484D01*
X141024061Y-70164484D02*
X141095490Y-70021626D01*
X141095490Y-70021626D02*
X141095490Y-68735912D01*
X139666919Y-69235912D02*
X139666919Y-70235912D01*
X140309776Y-69235912D02*
X140309776Y-70021626D01*
X140309776Y-70021626D02*
X140238347Y-70164484D01*
X140238347Y-70164484D02*
X140095490Y-70235912D01*
X140095490Y-70235912D02*
X139881204Y-70235912D01*
X139881204Y-70235912D02*
X139738347Y-70164484D01*
X139738347Y-70164484D02*
X139666919Y-70093055D01*
X138309776Y-69235912D02*
X138309776Y-70450198D01*
X138309776Y-70450198D02*
X138381204Y-70593055D01*
X138381204Y-70593055D02*
X138452633Y-70664484D01*
X138452633Y-70664484D02*
X138595490Y-70735912D01*
X138595490Y-70735912D02*
X138809776Y-70735912D01*
X138809776Y-70735912D02*
X138952633Y-70664484D01*
X138309776Y-70164484D02*
X138452633Y-70235912D01*
X138452633Y-70235912D02*
X138738347Y-70235912D01*
X138738347Y-70235912D02*
X138881204Y-70164484D01*
X138881204Y-70164484D02*
X138952633Y-70093055D01*
X138952633Y-70093055D02*
X139024061Y-69950198D01*
X139024061Y-69950198D02*
X139024061Y-69521626D01*
X139024061Y-69521626D02*
X138952633Y-69378769D01*
X138952633Y-69378769D02*
X138881204Y-69307341D01*
X138881204Y-69307341D02*
X138738347Y-69235912D01*
X138738347Y-69235912D02*
X138452633Y-69235912D01*
X138452633Y-69235912D02*
X138309776Y-69307341D01*
X155095489Y-72650828D02*
X155095489Y-71150828D01*
X155095489Y-71150828D02*
X154738346Y-71150828D01*
X154738346Y-71150828D02*
X154524060Y-71222257D01*
X154524060Y-71222257D02*
X154381203Y-71365114D01*
X154381203Y-71365114D02*
X154309774Y-71507971D01*
X154309774Y-71507971D02*
X154238346Y-71793685D01*
X154238346Y-71793685D02*
X154238346Y-72007971D01*
X154238346Y-72007971D02*
X154309774Y-72293685D01*
X154309774Y-72293685D02*
X154381203Y-72436542D01*
X154381203Y-72436542D02*
X154524060Y-72579400D01*
X154524060Y-72579400D02*
X154738346Y-72650828D01*
X154738346Y-72650828D02*
X155095489Y-72650828D01*
X153595489Y-71150828D02*
X153595489Y-72365114D01*
X153595489Y-72365114D02*
X153524060Y-72507971D01*
X153524060Y-72507971D02*
X153452632Y-72579400D01*
X153452632Y-72579400D02*
X153309774Y-72650828D01*
X153309774Y-72650828D02*
X153024060Y-72650828D01*
X153024060Y-72650828D02*
X152881203Y-72579400D01*
X152881203Y-72579400D02*
X152809774Y-72507971D01*
X152809774Y-72507971D02*
X152738346Y-72365114D01*
X152738346Y-72365114D02*
X152738346Y-71150828D01*
X152024060Y-72650828D02*
X152024060Y-71150828D01*
X152024060Y-71150828D02*
X151166917Y-72650828D01*
X151166917Y-72650828D02*
X151166917Y-71150828D01*
X150452631Y-71865114D02*
X149952631Y-71865114D01*
X149738345Y-72650828D02*
X150452631Y-72650828D01*
X150452631Y-72650828D02*
X150452631Y-71150828D01*
X150452631Y-71150828D02*
X149738345Y-71150828D01*
X148024059Y-72579400D02*
X147809774Y-72650828D01*
X147809774Y-72650828D02*
X147452631Y-72650828D01*
X147452631Y-72650828D02*
X147309774Y-72579400D01*
X147309774Y-72579400D02*
X147238345Y-72507971D01*
X147238345Y-72507971D02*
X147166916Y-72365114D01*
X147166916Y-72365114D02*
X147166916Y-72222257D01*
X147166916Y-72222257D02*
X147238345Y-72079400D01*
X147238345Y-72079400D02*
X147309774Y-72007971D01*
X147309774Y-72007971D02*
X147452631Y-71936542D01*
X147452631Y-71936542D02*
X147738345Y-71865114D01*
X147738345Y-71865114D02*
X147881202Y-71793685D01*
X147881202Y-71793685D02*
X147952631Y-71722257D01*
X147952631Y-71722257D02*
X148024059Y-71579400D01*
X148024059Y-71579400D02*
X148024059Y-71436542D01*
X148024059Y-71436542D02*
X147952631Y-71293685D01*
X147952631Y-71293685D02*
X147881202Y-71222257D01*
X147881202Y-71222257D02*
X147738345Y-71150828D01*
X147738345Y-71150828D02*
X147381202Y-71150828D01*
X147381202Y-71150828D02*
X147166916Y-71222257D01*
X145952631Y-72579400D02*
X146095488Y-72650828D01*
X146095488Y-72650828D02*
X146381203Y-72650828D01*
X146381203Y-72650828D02*
X146524060Y-72579400D01*
X146524060Y-72579400D02*
X146595488Y-72436542D01*
X146595488Y-72436542D02*
X146595488Y-71865114D01*
X146595488Y-71865114D02*
X146524060Y-71722257D01*
X146524060Y-71722257D02*
X146381203Y-71650828D01*
X146381203Y-71650828D02*
X146095488Y-71650828D01*
X146095488Y-71650828D02*
X145952631Y-71722257D01*
X145952631Y-71722257D02*
X145881203Y-71865114D01*
X145881203Y-71865114D02*
X145881203Y-72007971D01*
X145881203Y-72007971D02*
X146595488Y-72150828D01*
X145238346Y-71650828D02*
X145238346Y-73150828D01*
X145238346Y-71722257D02*
X145095489Y-71650828D01*
X145095489Y-71650828D02*
X144809774Y-71650828D01*
X144809774Y-71650828D02*
X144666917Y-71722257D01*
X144666917Y-71722257D02*
X144595489Y-71793685D01*
X144595489Y-71793685D02*
X144524060Y-71936542D01*
X144524060Y-71936542D02*
X144524060Y-72365114D01*
X144524060Y-72365114D02*
X144595489Y-72507971D01*
X144595489Y-72507971D02*
X144666917Y-72579400D01*
X144666917Y-72579400D02*
X144809774Y-72650828D01*
X144809774Y-72650828D02*
X145095489Y-72650828D01*
X145095489Y-72650828D02*
X145238346Y-72579400D01*
X144095488Y-71650828D02*
X143524060Y-71650828D01*
X143881203Y-71150828D02*
X143881203Y-72436542D01*
X143881203Y-72436542D02*
X143809774Y-72579400D01*
X143809774Y-72579400D02*
X143666917Y-72650828D01*
X143666917Y-72650828D02*
X143524060Y-72650828D01*
X141952631Y-71293685D02*
X141881203Y-71222257D01*
X141881203Y-71222257D02*
X141738346Y-71150828D01*
X141738346Y-71150828D02*
X141381203Y-71150828D01*
X141381203Y-71150828D02*
X141238346Y-71222257D01*
X141238346Y-71222257D02*
X141166917Y-71293685D01*
X141166917Y-71293685D02*
X141095488Y-71436542D01*
X141095488Y-71436542D02*
X141095488Y-71579400D01*
X141095488Y-71579400D02*
X141166917Y-71793685D01*
X141166917Y-71793685D02*
X142024060Y-72650828D01*
X142024060Y-72650828D02*
X141095488Y-72650828D01*
X139809775Y-71150828D02*
X140095489Y-71150828D01*
X140095489Y-71150828D02*
X140238346Y-71222257D01*
X140238346Y-71222257D02*
X140309775Y-71293685D01*
X140309775Y-71293685D02*
X140452632Y-71507971D01*
X140452632Y-71507971D02*
X140524060Y-71793685D01*
X140524060Y-71793685D02*
X140524060Y-72365114D01*
X140524060Y-72365114D02*
X140452632Y-72507971D01*
X140452632Y-72507971D02*
X140381203Y-72579400D01*
X140381203Y-72579400D02*
X140238346Y-72650828D01*
X140238346Y-72650828D02*
X139952632Y-72650828D01*
X139952632Y-72650828D02*
X139809775Y-72579400D01*
X139809775Y-72579400D02*
X139738346Y-72507971D01*
X139738346Y-72507971D02*
X139666917Y-72365114D01*
X139666917Y-72365114D02*
X139666917Y-72007971D01*
X139666917Y-72007971D02*
X139738346Y-71865114D01*
X139738346Y-71865114D02*
X139809775Y-71793685D01*
X139809775Y-71793685D02*
X139952632Y-71722257D01*
X139952632Y-71722257D02*
X140238346Y-71722257D01*
X140238346Y-71722257D02*
X140381203Y-71793685D01*
X140381203Y-71793685D02*
X140452632Y-71865114D01*
X140452632Y-71865114D02*
X140524060Y-72007971D01*
D11*
X160969517Y-67998219D02*
X161540945Y-67998219D01*
X161255231Y-67998219D02*
X161255231Y-66998219D01*
X161255231Y-66998219D02*
X161350469Y-67141076D01*
X161350469Y-67141076D02*
X161445707Y-67236314D01*
X161445707Y-67236314D02*
X161540945Y-67283933D01*
X161477517Y-74892219D02*
X162048945Y-74892219D01*
X161763231Y-74892219D02*
X161763231Y-73892219D01*
X161763231Y-73892219D02*
X161858469Y-74035076D01*
X161858469Y-74035076D02*
X161953707Y-74130314D01*
X161953707Y-74130314D02*
X162048945Y-74177933D01*
X160858469Y-73892219D02*
X160763231Y-73892219D01*
X160763231Y-73892219D02*
X160667993Y-73939838D01*
X160667993Y-73939838D02*
X160620374Y-73987457D01*
X160620374Y-73987457D02*
X160572755Y-74082695D01*
X160572755Y-74082695D02*
X160525136Y-74273171D01*
X160525136Y-74273171D02*
X160525136Y-74511266D01*
X160525136Y-74511266D02*
X160572755Y-74701742D01*
X160572755Y-74701742D02*
X160620374Y-74796980D01*
X160620374Y-74796980D02*
X160667993Y-74844600D01*
X160667993Y-74844600D02*
X160763231Y-74892219D01*
X160763231Y-74892219D02*
X160858469Y-74892219D01*
X160858469Y-74892219D02*
X160953707Y-74844600D01*
X160953707Y-74844600D02*
X161001326Y-74796980D01*
X161001326Y-74796980D02*
X161048945Y-74701742D01*
X161048945Y-74701742D02*
X161096564Y-74511266D01*
X161096564Y-74511266D02*
X161096564Y-74273171D01*
X161096564Y-74273171D02*
X161048945Y-74082695D01*
X161048945Y-74082695D02*
X161001326Y-73987457D01*
X161001326Y-73987457D02*
X160953707Y-73939838D01*
X160953707Y-73939838D02*
X160858469Y-73892219D01*
M02*
