%TF.GenerationSoftware,KiCad,Pcbnew,10.0.1*%
%TF.CreationDate,2026-09-29T15:39:54+01:00*%
%TF.ProjectId,pc080,70633038-302e-46b6-9963-61645f706362,rev?*%
%TF.SameCoordinates,Original*%
%TF.FileFunction,Legend,Top*%
%TF.FilePolarity,Positive*%
%FSLAX46Y46*%
G04 Gerber Fmt 4.6, Leading zero omitted, Abs format (unit mm)*
G04 Created by KiCad (PCBNEW 10.0.1) date 2026-09-29 15:39:54*
%MOMM*%
%LPD*%
G01*
G04 APERTURE LIST*
%ADD10C,0.150000*%
%ADD11C,0.200000*%
%ADD12C,0.127000*%
G04 APERTURE END LIST*
D10*
X143429819Y-71408333D02*
X144144104Y-71408333D01*
X144144104Y-71408333D02*
X144286961Y-71455952D01*
X144286961Y-71455952D02*
X144382200Y-71551190D01*
X144382200Y-71551190D02*
X144429819Y-71694047D01*
X144429819Y-71694047D02*
X144429819Y-71789285D01*
X143763152Y-70503571D02*
X144429819Y-70503571D01*
X143382200Y-70741666D02*
X144096485Y-70979761D01*
X144096485Y-70979761D02*
X144096485Y-70360714D01*
X151179819Y-71358333D02*
X151894104Y-71358333D01*
X151894104Y-71358333D02*
X152036961Y-71405952D01*
X152036961Y-71405952D02*
X152132200Y-71501190D01*
X152132200Y-71501190D02*
X152179819Y-71644047D01*
X152179819Y-71644047D02*
X152179819Y-71739285D01*
X151179819Y-70453571D02*
X151179819Y-70644047D01*
X151179819Y-70644047D02*
X151227438Y-70739285D01*
X151227438Y-70739285D02*
X151275057Y-70786904D01*
X151275057Y-70786904D02*
X151417914Y-70882142D01*
X151417914Y-70882142D02*
X151608390Y-70929761D01*
X151608390Y-70929761D02*
X151989342Y-70929761D01*
X151989342Y-70929761D02*
X152084580Y-70882142D01*
X152084580Y-70882142D02*
X152132200Y-70834523D01*
X152132200Y-70834523D02*
X152179819Y-70739285D01*
X152179819Y-70739285D02*
X152179819Y-70548809D01*
X152179819Y-70548809D02*
X152132200Y-70453571D01*
X152132200Y-70453571D02*
X152084580Y-70405952D01*
X152084580Y-70405952D02*
X151989342Y-70358333D01*
X151989342Y-70358333D02*
X151751247Y-70358333D01*
X151751247Y-70358333D02*
X151656009Y-70405952D01*
X151656009Y-70405952D02*
X151608390Y-70453571D01*
X151608390Y-70453571D02*
X151560771Y-70548809D01*
X151560771Y-70548809D02*
X151560771Y-70739285D01*
X151560771Y-70739285D02*
X151608390Y-70834523D01*
X151608390Y-70834523D02*
X151656009Y-70882142D01*
X151656009Y-70882142D02*
X151751247Y-70929761D01*
X135504819Y-71608333D02*
X136219104Y-71608333D01*
X136219104Y-71608333D02*
X136361961Y-71655952D01*
X136361961Y-71655952D02*
X136457200Y-71751190D01*
X136457200Y-71751190D02*
X136504819Y-71894047D01*
X136504819Y-71894047D02*
X136504819Y-71989285D01*
X135504819Y-70655952D02*
X135504819Y-71132142D01*
X135504819Y-71132142D02*
X135981009Y-71179761D01*
X135981009Y-71179761D02*
X135933390Y-71132142D01*
X135933390Y-71132142D02*
X135885771Y-71036904D01*
X135885771Y-71036904D02*
X135885771Y-70798809D01*
X135885771Y-70798809D02*
X135933390Y-70703571D01*
X135933390Y-70703571D02*
X135981009Y-70655952D01*
X135981009Y-70655952D02*
X136076247Y-70608333D01*
X136076247Y-70608333D02*
X136314342Y-70608333D01*
X136314342Y-70608333D02*
X136409580Y-70655952D01*
X136409580Y-70655952D02*
X136457200Y-70703571D01*
X136457200Y-70703571D02*
X136504819Y-70798809D01*
X136504819Y-70798809D02*
X136504819Y-71036904D01*
X136504819Y-71036904D02*
X136457200Y-71132142D01*
X136457200Y-71132142D02*
X136409580Y-71179761D01*
X158729819Y-71408333D02*
X159444104Y-71408333D01*
X159444104Y-71408333D02*
X159586961Y-71455952D01*
X159586961Y-71455952D02*
X159682200Y-71551190D01*
X159682200Y-71551190D02*
X159729819Y-71694047D01*
X159729819Y-71694047D02*
X159729819Y-71789285D01*
X158729819Y-71027380D02*
X158729819Y-70360714D01*
X158729819Y-70360714D02*
X159729819Y-70789285D01*
D11*
X160547054Y-67087457D02*
X160594673Y-67039838D01*
X160594673Y-67039838D02*
X160689911Y-66992219D01*
X160689911Y-66992219D02*
X160928006Y-66992219D01*
X160928006Y-66992219D02*
X161023244Y-67039838D01*
X161023244Y-67039838D02*
X161070863Y-67087457D01*
X161070863Y-67087457D02*
X161118482Y-67182695D01*
X161118482Y-67182695D02*
X161118482Y-67277933D01*
X161118482Y-67277933D02*
X161070863Y-67420790D01*
X161070863Y-67420790D02*
X160499435Y-67992219D01*
X160499435Y-67992219D02*
X161118482Y-67992219D01*
X161737530Y-66992219D02*
X161832768Y-66992219D01*
X161832768Y-66992219D02*
X161928006Y-67039838D01*
X161928006Y-67039838D02*
X161975625Y-67087457D01*
X161975625Y-67087457D02*
X162023244Y-67182695D01*
X162023244Y-67182695D02*
X162070863Y-67373171D01*
X162070863Y-67373171D02*
X162070863Y-67611266D01*
X162070863Y-67611266D02*
X162023244Y-67801742D01*
X162023244Y-67801742D02*
X161975625Y-67896980D01*
X161975625Y-67896980D02*
X161928006Y-67944600D01*
X161928006Y-67944600D02*
X161832768Y-67992219D01*
X161832768Y-67992219D02*
X161737530Y-67992219D01*
X161737530Y-67992219D02*
X161642292Y-67944600D01*
X161642292Y-67944600D02*
X161594673Y-67896980D01*
X161594673Y-67896980D02*
X161547054Y-67801742D01*
X161547054Y-67801742D02*
X161499435Y-67611266D01*
X161499435Y-67611266D02*
X161499435Y-67373171D01*
X161499435Y-67373171D02*
X161547054Y-67182695D01*
X161547054Y-67182695D02*
X161594673Y-67087457D01*
X161594673Y-67087457D02*
X161642292Y-67039838D01*
X161642292Y-67039838D02*
X161737530Y-66992219D01*
X161118482Y-74892219D02*
X160547054Y-74892219D01*
X160832768Y-74892219D02*
X160832768Y-73892219D01*
X160832768Y-73892219D02*
X160737530Y-74035076D01*
X160737530Y-74035076D02*
X160642292Y-74130314D01*
X160642292Y-74130314D02*
X160547054Y-74177933D01*
X162070863Y-74892219D02*
X161499435Y-74892219D01*
X161785149Y-74892219D02*
X161785149Y-73892219D01*
X161785149Y-73892219D02*
X161689911Y-74035076D01*
X161689911Y-74035076D02*
X161594673Y-74130314D01*
X161594673Y-74130314D02*
X161499435Y-74177933D01*
%TO.C,J4*%
D12*
X139175000Y-68925000D02*
X140505000Y-68925000D01*
X139175000Y-72925000D02*
X139175000Y-68925000D01*
X139175000Y-72925000D02*
X140505000Y-72925000D01*
X142145000Y-68925000D02*
X142375001Y-68925000D01*
X142375000Y-72395000D02*
X142375001Y-72925000D01*
X142375001Y-68925000D02*
X142375000Y-69455000D01*
X142375001Y-72925000D02*
X142145000Y-72925000D01*
D11*
X143775000Y-69925000D02*
G75*
G02*
X143575000Y-69925000I-100000J0D01*
G01*
X143575000Y-69925000D02*
G75*
G02*
X143775000Y-69925000I100000J0D01*
G01*
%TO.C,J6*%
D12*
X146850000Y-68925000D02*
X148180000Y-68925000D01*
X146850000Y-72925000D02*
X146850000Y-68925000D01*
X146850000Y-72925000D02*
X148180000Y-72925000D01*
X149820000Y-68925000D02*
X150050001Y-68925000D01*
X150050000Y-72395000D02*
X150050001Y-72925000D01*
X150050001Y-68925000D02*
X150050000Y-69455000D01*
X150050001Y-72925000D02*
X149820000Y-72925000D01*
D11*
X151450000Y-69925000D02*
G75*
G02*
X151250000Y-69925000I-100000J0D01*
G01*
X151250000Y-69925000D02*
G75*
G02*
X151450000Y-69925000I100000J0D01*
G01*
%TO.C,J5*%
D12*
X131162500Y-68925000D02*
X132492500Y-68925000D01*
X131162500Y-72925000D02*
X131162500Y-68925000D01*
X131162500Y-72925000D02*
X132492500Y-72925000D01*
X134132500Y-68925000D02*
X134362501Y-68925000D01*
X134362500Y-72395000D02*
X134362501Y-72925000D01*
X134362501Y-68925000D02*
X134362500Y-69455000D01*
X134362501Y-72925000D02*
X134132500Y-72925000D01*
D11*
X135762500Y-69925000D02*
G75*
G02*
X135562500Y-69925000I-100000J0D01*
G01*
X135562500Y-69925000D02*
G75*
G02*
X135762500Y-69925000I100000J0D01*
G01*
%TO.C,J7*%
D12*
X154375000Y-68925000D02*
X155705000Y-68925000D01*
X154375000Y-72925000D02*
X154375000Y-68925000D01*
X154375000Y-72925000D02*
X155705000Y-72925000D01*
X157345000Y-68925000D02*
X157575001Y-68925000D01*
X157575000Y-72395000D02*
X157575001Y-72925000D01*
X157575001Y-68925000D02*
X157575000Y-69455000D01*
X157575001Y-72925000D02*
X157345000Y-72925000D01*
D11*
X158975000Y-69925000D02*
G75*
G02*
X158775000Y-69925000I-100000J0D01*
G01*
X158775000Y-69925000D02*
G75*
G02*
X158975000Y-69925000I100000J0D01*
G01*
%TD*%
M02*
