%TF.GenerationSoftware,KiCad,Pcbnew,10.0.1*%
%TF.CreationDate,2026-09-29T15:39:54+01:00*%
%TF.ProjectId,pc080,70633038-302e-46b6-9963-61645f706362,rev?*%
%TF.SameCoordinates,Original*%
%TF.FileFunction,Copper,L1,Top*%
%TF.FilePolarity,Positive*%
%FSLAX46Y46*%
G04 Gerber Fmt 4.6, Leading zero omitted, Abs format (unit mm)*
G04 Created by KiCad (PCBNEW 10.0.1) date 2026-09-29 15:39:54*
%MOMM*%
%LPD*%
G01*
G04 APERTURE LIST*
%TA.AperFunction,SMDPad,CuDef*%
%ADD10R,0.900000X0.300000*%
%TD*%
%TA.AperFunction,SMDPad,CuDef*%
%ADD11R,1.000000X0.520000*%
%TD*%
%TA.AperFunction,SMDPad,CuDef*%
%ADD12R,3.000000X0.600000*%
%TD*%
%TA.AperFunction,SMDPad,CuDef*%
%ADD13R,2.200000X0.600000*%
%TD*%
%TA.AperFunction,SMDPad,CuDef*%
%ADD14R,2.600000X0.600000*%
%TD*%
%TA.AperFunction,ViaPad*%
%ADD15C,0.600000*%
%TD*%
%TA.AperFunction,Conductor*%
%ADD16C,0.200000*%
%TD*%
G04 APERTURE END LIST*
D10*
%TO.P,J4,1,Pin_1_1*%
%TO.N,Net-(J1-Pin_1)*%
X142525000Y-69925000D03*
%TO.P,J4,2,Pin_2_2*%
%TO.N,Net-(J1-Pin_2)*%
X142525001Y-70425000D03*
%TO.P,J4,3,Pin_3_3*%
%TO.N,Net-(J1-Pin_3)*%
X142525000Y-70925000D03*
%TO.P,J4,4,Pin_4_4*%
%TO.N,Net-(J1-Pin_4)*%
X142525001Y-71425000D03*
%TO.P,J4,5,Pin_5_5*%
%TO.N,Net-(J1-Pin_5)*%
X142525000Y-71925000D03*
D11*
%TO.P,J4,S1*%
%TO.N,N/C*%
X141325000Y-69185000D03*
%TO.P,J4,S2*%
X141325000Y-72665000D03*
%TD*%
D10*
%TO.P,J6,1,Pin_1_1*%
%TO.N,Net-(J1-Pin_15)*%
X150200000Y-69925000D03*
%TO.P,J6,2,Pin_2_2*%
%TO.N,Net-(J1-Pin_14)*%
X150200001Y-70425000D03*
%TO.P,J6,3,Pin_3_3*%
%TO.N,Net-(J1-Pin_13)*%
X150200000Y-70925000D03*
%TO.P,J6,4,Pin_4_4*%
%TO.N,Net-(J1-Pin_12)*%
X150200001Y-71425000D03*
%TO.P,J6,5,Pin_5_5*%
%TO.N,Net-(J1-Pin_11)*%
X150200000Y-71925000D03*
D11*
%TO.P,J6,S1*%
%TO.N,N/C*%
X149000000Y-69185000D03*
%TO.P,J6,S2*%
X149000000Y-72665000D03*
%TD*%
D10*
%TO.P,J5,1,Pin_1_1*%
%TO.N,Net-(J1-Pin_6)*%
X134512500Y-69925000D03*
%TO.P,J5,2,Pin_2_2*%
%TO.N,Net-(J1-Pin_7)*%
X134512501Y-70425000D03*
%TO.P,J5,3,Pin_3_3*%
%TO.N,Net-(J1-Pin_8)*%
X134512500Y-70925000D03*
%TO.P,J5,4,Pin_4_4*%
%TO.N,Net-(J1-Pin_9)*%
X134512501Y-71425000D03*
%TO.P,J5,5,Pin_5_5*%
%TO.N,Net-(J1-Pin_10)*%
X134512500Y-71925000D03*
D11*
%TO.P,J5,S1*%
%TO.N,N/C*%
X133312500Y-69185000D03*
%TO.P,J5,S2*%
X133312500Y-72665000D03*
%TD*%
D10*
%TO.P,J7,1,Pin_1_1*%
%TO.N,Net-(J1-Pin_20)*%
X157725000Y-69925000D03*
%TO.P,J7,2,Pin_2_2*%
%TO.N,Net-(J1-Pin_19)*%
X157725001Y-70425000D03*
%TO.P,J7,3,Pin_3_3*%
%TO.N,Net-(J1-Pin_18)*%
X157725000Y-70925000D03*
%TO.P,J7,4,Pin_4_4*%
%TO.N,Net-(J1-Pin_17)*%
X157725001Y-71425000D03*
%TO.P,J7,5,Pin_5_5*%
%TO.N,Net-(J1-Pin_16)*%
X157725000Y-71925000D03*
D11*
%TO.P,J7,S1*%
%TO.N,N/C*%
X156525000Y-69185000D03*
%TO.P,J7,S2*%
X156525000Y-72665000D03*
%TD*%
D12*
%TO.P,J1,11,Pin_11_11*%
%TO.N,Net-(J1-Pin_11)*%
X164125000Y-74325000D03*
D13*
%TO.P,J1,12,Pin_12_12*%
%TO.N,Net-(J1-Pin_12)*%
X163725000Y-73525000D03*
%TO.P,J1,13,Pin_13_13*%
%TO.N,Net-(J1-Pin_13)*%
X163725000Y-72725000D03*
D12*
%TO.P,J1,14,Pin_14_14*%
%TO.N,Net-(J1-Pin_14)*%
X164125000Y-71925000D03*
D14*
%TO.P,J1,15,Pin_15_15*%
%TO.N,Net-(J1-Pin_15)*%
X163925000Y-71125000D03*
%TO.P,J1,16,Pin_16_16*%
%TO.N,Net-(J1-Pin_16)*%
X163925000Y-70325000D03*
D12*
%TO.P,J1,17,Pin_17_17*%
%TO.N,Net-(J1-Pin_17)*%
X164125000Y-69525000D03*
D13*
%TO.P,J1,18,Pin_18_18*%
%TO.N,Net-(J1-Pin_18)*%
X163725000Y-68725000D03*
%TO.P,J1,19,Pin_19_19*%
%TO.N,Net-(J1-Pin_19)*%
X163725000Y-67925000D03*
D12*
%TO.P,J1,20,Pin_20_20*%
%TO.N,Net-(J1-Pin_20)*%
X164125000Y-67125000D03*
%TD*%
D15*
%TO.N,Net-(J1-Pin_1)*%
X146150000Y-67525000D03*
%TO.N,Net-(J1-Pin_2)*%
X145625000Y-68325000D03*
%TO.N,Net-(J1-Pin_3)*%
X145025000Y-69125000D03*
%TO.N,Net-(J1-Pin_4)*%
X145600000Y-69950000D03*
%TO.N,Net-(J1-Pin_5)*%
X146325000Y-70725000D03*
%TO.N,Net-(J1-Pin_6)*%
X137162500Y-70037500D03*
%TO.N,Net-(J1-Pin_7)*%
X136925000Y-70825000D03*
%TO.N,Net-(J1-Pin_8)*%
X136675000Y-71625000D03*
%TO.N,Net-(J1-Pin_9)*%
X136975735Y-72774265D03*
%TO.N,Net-(J1-Pin_10)*%
X137213235Y-73811765D03*
%TD*%
%TO.N,Net-(J1-Pin_1)*%
D16*
X144925000Y-67525000D02*
X146150000Y-67525000D01*
X142525000Y-69925000D02*
X144925000Y-67525000D01*
%TO.N,Net-(J1-Pin_2)*%
X144300000Y-69900000D02*
X144300000Y-68925000D01*
X144300000Y-68925000D02*
X144900000Y-68325000D01*
X143775000Y-70425000D02*
X144300000Y-69900000D01*
X144900000Y-68325000D02*
X145625000Y-68325000D01*
X142525001Y-70425000D02*
X143775000Y-70425000D01*
%TO.N,Net-(J1-Pin_3)*%
X142525000Y-70925000D02*
X144550000Y-70925000D01*
X145025000Y-70450000D02*
X145000000Y-70425000D01*
X144550000Y-70925000D02*
X145025000Y-70450000D01*
X145000000Y-70425000D02*
X145000000Y-69150000D01*
X145000000Y-69150000D02*
X145025000Y-69125000D01*
%TO.N,Net-(J1-Pin_4)*%
X142525001Y-71425000D02*
X144900000Y-71425000D01*
X144900000Y-71425000D02*
X145600000Y-70725000D01*
X145600000Y-70725000D02*
X145600000Y-69950000D01*
%TO.N,Net-(J1-Pin_5)*%
X142525000Y-71925000D02*
X145125000Y-71925000D01*
X145125000Y-71925000D02*
X146325000Y-70725000D01*
%TO.N,Net-(J1-Pin_15)*%
X154225000Y-73550000D02*
X157750000Y-73550000D01*
X152750000Y-72125000D02*
X152800000Y-72125000D01*
X152412500Y-70462500D02*
X152750000Y-70800000D01*
X159275000Y-73075000D02*
X161225000Y-71125000D01*
X152800000Y-72125000D02*
X154225000Y-73550000D01*
X157750000Y-73550000D02*
X158225000Y-73075000D01*
X158225000Y-73075000D02*
X159275000Y-73075000D01*
X150200000Y-69925000D02*
X151875000Y-69925000D01*
X151875000Y-69925000D02*
X152412500Y-70462500D01*
X152750000Y-70800000D02*
X152750000Y-72125000D01*
X161225000Y-71125000D02*
X163925000Y-71125000D01*
%TO.N,Net-(J1-Pin_14)*%
X160725000Y-72325000D02*
X162125000Y-72325000D01*
X153922058Y-73950000D02*
X158100000Y-73950000D01*
X158500000Y-73550000D02*
X159500000Y-73550000D01*
X158100000Y-73950000D02*
X158500000Y-73550000D01*
X159500000Y-73550000D02*
X160725000Y-72325000D01*
X151250000Y-70425000D02*
X152023529Y-71198529D01*
X162125000Y-72325000D02*
X162525000Y-71925000D01*
X152023529Y-71198529D02*
X152023529Y-72051471D01*
X162525000Y-71925000D02*
X164125000Y-71925000D01*
X152023529Y-72051471D02*
X153922058Y-73950000D01*
X150200001Y-70425000D02*
X151250000Y-70425000D01*
%TO.N,Net-(J1-Pin_13)*%
X153756372Y-74350000D02*
X158350000Y-74350000D01*
X150200000Y-70925000D02*
X150975000Y-70925000D01*
X159725000Y-74100000D02*
X161100000Y-72725000D01*
X150975000Y-70925000D02*
X151575000Y-71525000D01*
X151575000Y-71525000D02*
X151575000Y-72168628D01*
X158350000Y-74350000D02*
X158600000Y-74100000D01*
X151575000Y-72168628D02*
X153756372Y-74350000D01*
X161100000Y-72725000D02*
X163725000Y-72725000D01*
X158600000Y-74100000D02*
X159725000Y-74100000D01*
%TO.N,Net-(J1-Pin_12)*%
X153590686Y-74750000D02*
X158600000Y-74750000D01*
X150900000Y-71425000D02*
X151175000Y-71700000D01*
X158884315Y-74525000D02*
X160000000Y-74525000D01*
X151175000Y-72334314D02*
X153590686Y-74750000D01*
X158600000Y-74750000D02*
X158775000Y-74575000D01*
X150200001Y-71425000D02*
X150900000Y-71425000D01*
X161000000Y-73525000D02*
X163725000Y-73525000D01*
X158834314Y-74575000D02*
X158884315Y-74525000D01*
X160000000Y-74525000D02*
X161000000Y-73525000D01*
X158775000Y-74575000D02*
X158834314Y-74575000D01*
X151175000Y-71700000D02*
X151175000Y-72334314D01*
%TO.N,Net-(J1-Pin_11)*%
X159050000Y-74925000D02*
X160375000Y-74925000D01*
X160975000Y-74325000D02*
X164125000Y-74325000D01*
X160375000Y-74925000D02*
X160975000Y-74325000D01*
X150200000Y-71925000D02*
X153425000Y-75150000D01*
X158825000Y-75150000D02*
X159050000Y-74925000D01*
X153425000Y-75150000D02*
X158825000Y-75150000D01*
%TO.N,Net-(J1-Pin_6)*%
X134512500Y-69925000D02*
X137050000Y-69925000D01*
X137050000Y-69925000D02*
X137162500Y-70037500D01*
%TO.N,Net-(J1-Pin_7)*%
X134512501Y-70425000D02*
X136525000Y-70425000D01*
X136525000Y-70425000D02*
X136925000Y-70825000D01*
%TO.N,Net-(J1-Pin_8)*%
X134512500Y-70925000D02*
X135975000Y-70925000D01*
X135975000Y-70925000D02*
X136675000Y-71625000D01*
%TO.N,Net-(J1-Pin_9)*%
X134512501Y-71425000D02*
X135626470Y-71425000D01*
X135626470Y-71425000D02*
X136975735Y-72774265D01*
%TO.N,Net-(J1-Pin_10)*%
X134512500Y-71925000D02*
X136399265Y-73811765D01*
X136399265Y-73811765D02*
X137213235Y-73811765D01*
%TO.N,Net-(J1-Pin_20)*%
X157725000Y-69925000D02*
X160525000Y-67125000D01*
X160525000Y-67125000D02*
X164125000Y-67125000D01*
%TO.N,Net-(J1-Pin_19)*%
X160750000Y-67925000D02*
X163725000Y-67925000D01*
X158250000Y-70425000D02*
X160750000Y-67925000D01*
X157725001Y-70425000D02*
X158250000Y-70425000D01*
%TO.N,Net-(J1-Pin_18)*%
X158315686Y-70925000D02*
X160515686Y-68725000D01*
X160515686Y-68725000D02*
X163725000Y-68725000D01*
X157725000Y-70925000D02*
X158315686Y-70925000D01*
%TO.N,Net-(J1-Pin_17)*%
X164125000Y-69525000D02*
X160700000Y-69525000D01*
X158800000Y-71425000D02*
X157725001Y-71425000D01*
X160700000Y-69525000D02*
X158800000Y-71425000D01*
%TO.N,Net-(J1-Pin_16)*%
X157725000Y-71925000D02*
X159075000Y-71925000D01*
X160675000Y-70325000D02*
X163925000Y-70325000D01*
X159075000Y-71925000D02*
X160675000Y-70325000D01*
%TD*%
M02*
