%TF.GenerationSoftware,KiCad,Pcbnew,10.0.1*%
%TF.CreationDate,2026-09-29T15:39:46+01:00*%
%TF.ProjectId,pc080,70633038-302e-46b6-9963-61645f706362,rev?*%
%TF.SameCoordinates,Original*%
%TF.FileFunction,Drillmap*%
%TF.FilePolarity,Positive*%
%FSLAX45Y45*%
G04 Gerber Fmt 4.5, Leading zero omitted, Abs format (unit mm)*
G04 Created by KiCad (PCBNEW 10.0.1) date 2026-09-29 15:39:46*
%MOMM*%
%LPD*%
G01*
G04 APERTURE LIST*
%ADD10C,0.050000*%
%ADD11C,0.200000*%
%ADD12C,0.100000*%
G04 APERTURE END LIST*
D10*
X12022500Y-6552500D02*
X14122500Y-6552500D01*
X12022500Y-7632500D02*
X12022500Y-6552500D01*
X12302500Y-6887500D02*
X12712500Y-6887500D01*
X12302500Y-7297500D02*
X12302500Y-6887500D01*
X12712500Y-6887500D02*
X12712500Y-7297500D01*
X12712500Y-7297500D02*
X12302500Y-7297500D01*
X14122500Y-6497500D02*
X15177500Y-6497500D01*
X14122500Y-6552500D02*
X14122500Y-6497500D01*
X14122500Y-7632500D02*
X12022500Y-7632500D01*
X14122500Y-7687500D02*
X14122500Y-7632500D01*
X15177500Y-6497500D02*
X15177500Y-6597500D01*
X15177500Y-6597500D02*
X15432500Y-6597500D01*
X15407500Y-7587500D02*
X15407500Y-7687500D01*
X15407500Y-7687500D02*
X14122500Y-7687500D01*
X15432500Y-6497500D02*
X15942500Y-6497500D01*
X15432500Y-6597500D02*
X15432500Y-6497500D01*
X15662500Y-7587500D02*
X15407500Y-7587500D01*
X15662500Y-7687500D02*
X15662500Y-7587500D01*
X15942500Y-6497500D02*
X15942500Y-6632500D01*
X15942500Y-7552500D02*
X15942500Y-7687500D01*
X15942500Y-7687500D02*
X15662500Y-7687500D01*
X16612500Y-6632500D02*
X15942500Y-6632500D01*
X16612500Y-7552500D02*
X15942500Y-7552500D01*
X16612500Y-7552500D02*
X16612500Y-6632500D01*
D11*
D12*
X13652500Y-7147500D02*
X13682500Y-7177500D01*
X13682500Y-7147500D02*
X13652500Y-7177500D01*
X13677500Y-7067500D02*
X13707500Y-7097500D01*
X13707500Y-7067500D02*
X13677500Y-7097500D01*
X13682573Y-7262426D02*
X13712573Y-7292426D01*
X13712573Y-7262426D02*
X13682573Y-7292426D01*
X13701250Y-6988750D02*
X13731250Y-7018750D01*
X13731250Y-6988750D02*
X13701250Y-7018750D01*
X13706323Y-7366176D02*
X13736323Y-7396176D01*
X13736323Y-7366176D02*
X13706323Y-7396176D01*
X14487500Y-6897500D02*
X14517500Y-6927500D01*
X14517500Y-6897500D02*
X14487500Y-6927500D01*
X14545000Y-6980000D02*
X14575000Y-7010000D01*
X14575000Y-6980000D02*
X14545000Y-7010000D01*
X14547500Y-6817500D02*
X14577500Y-6847500D01*
X14577500Y-6817500D02*
X14547500Y-6847500D01*
X14600000Y-6737500D02*
X14630000Y-6767500D01*
X14630000Y-6737500D02*
X14600000Y-6767500D01*
X14617500Y-7057500D02*
X14647500Y-7087500D01*
X14647500Y-7057500D02*
X14617500Y-7087500D01*
D11*
X12280777Y-8001484D02*
X12280777Y-7801484D01*
X12280777Y-7801484D02*
X12328396Y-7801484D01*
X12328396Y-7801484D02*
X12356967Y-7811008D01*
X12356967Y-7811008D02*
X12376015Y-7830055D01*
X12376015Y-7830055D02*
X12385539Y-7849103D01*
X12385539Y-7849103D02*
X12395062Y-7887198D01*
X12395062Y-7887198D02*
X12395062Y-7915769D01*
X12395062Y-7915769D02*
X12385539Y-7953865D01*
X12385539Y-7953865D02*
X12376015Y-7972912D01*
X12376015Y-7972912D02*
X12356967Y-7991960D01*
X12356967Y-7991960D02*
X12328396Y-8001484D01*
X12328396Y-8001484D02*
X12280777Y-8001484D01*
X12480777Y-8001484D02*
X12480777Y-7868150D01*
X12480777Y-7906246D02*
X12490301Y-7887198D01*
X12490301Y-7887198D02*
X12499824Y-7877674D01*
X12499824Y-7877674D02*
X12518872Y-7868150D01*
X12518872Y-7868150D02*
X12537920Y-7868150D01*
X12604586Y-8001484D02*
X12604586Y-7868150D01*
X12604586Y-7801484D02*
X12595062Y-7811008D01*
X12595062Y-7811008D02*
X12604586Y-7820531D01*
X12604586Y-7820531D02*
X12614110Y-7811008D01*
X12614110Y-7811008D02*
X12604586Y-7801484D01*
X12604586Y-7801484D02*
X12604586Y-7820531D01*
X12728396Y-8001484D02*
X12709348Y-7991960D01*
X12709348Y-7991960D02*
X12699824Y-7972912D01*
X12699824Y-7972912D02*
X12699824Y-7801484D01*
X12833158Y-8001484D02*
X12814110Y-7991960D01*
X12814110Y-7991960D02*
X12804586Y-7972912D01*
X12804586Y-7972912D02*
X12804586Y-7801484D01*
X13061729Y-8001484D02*
X13061729Y-7801484D01*
X13061729Y-7801484D02*
X13128396Y-7944341D01*
X13128396Y-7944341D02*
X13195062Y-7801484D01*
X13195062Y-7801484D02*
X13195062Y-8001484D01*
X13376015Y-8001484D02*
X13376015Y-7896722D01*
X13376015Y-7896722D02*
X13366491Y-7877674D01*
X13366491Y-7877674D02*
X13347443Y-7868150D01*
X13347443Y-7868150D02*
X13309348Y-7868150D01*
X13309348Y-7868150D02*
X13290301Y-7877674D01*
X13376015Y-7991960D02*
X13356967Y-8001484D01*
X13356967Y-8001484D02*
X13309348Y-8001484D01*
X13309348Y-8001484D02*
X13290301Y-7991960D01*
X13290301Y-7991960D02*
X13280777Y-7972912D01*
X13280777Y-7972912D02*
X13280777Y-7953865D01*
X13280777Y-7953865D02*
X13290301Y-7934817D01*
X13290301Y-7934817D02*
X13309348Y-7925293D01*
X13309348Y-7925293D02*
X13356967Y-7925293D01*
X13356967Y-7925293D02*
X13376015Y-7915769D01*
X13471253Y-7868150D02*
X13471253Y-8068150D01*
X13471253Y-7877674D02*
X13490301Y-7868150D01*
X13490301Y-7868150D02*
X13528396Y-7868150D01*
X13528396Y-7868150D02*
X13547443Y-7877674D01*
X13547443Y-7877674D02*
X13556967Y-7887198D01*
X13556967Y-7887198D02*
X13566491Y-7906246D01*
X13566491Y-7906246D02*
X13566491Y-7963388D01*
X13566491Y-7963388D02*
X13556967Y-7982436D01*
X13556967Y-7982436D02*
X13547443Y-7991960D01*
X13547443Y-7991960D02*
X13528396Y-8001484D01*
X13528396Y-8001484D02*
X13490301Y-8001484D01*
X13490301Y-8001484D02*
X13471253Y-7991960D01*
X13652205Y-7982436D02*
X13661729Y-7991960D01*
X13661729Y-7991960D02*
X13652205Y-8001484D01*
X13652205Y-8001484D02*
X13642682Y-7991960D01*
X13642682Y-7991960D02*
X13652205Y-7982436D01*
X13652205Y-7982436D02*
X13652205Y-8001484D01*
X13652205Y-7877674D02*
X13661729Y-7887198D01*
X13661729Y-7887198D02*
X13652205Y-7896722D01*
X13652205Y-7896722D02*
X13642682Y-7887198D01*
X13642682Y-7887198D02*
X13652205Y-7877674D01*
X13652205Y-7877674D02*
X13652205Y-7896722D01*
D12*
X11990000Y-8315000D02*
X12020000Y-8345000D01*
X12020000Y-8315000D02*
X11990000Y-8345000D01*
D11*
X12318872Y-8221484D02*
X12337920Y-8221484D01*
X12337920Y-8221484D02*
X12356967Y-8231008D01*
X12356967Y-8231008D02*
X12366491Y-8240531D01*
X12366491Y-8240531D02*
X12376015Y-8259579D01*
X12376015Y-8259579D02*
X12385539Y-8297674D01*
X12385539Y-8297674D02*
X12385539Y-8345293D01*
X12385539Y-8345293D02*
X12376015Y-8383388D01*
X12376015Y-8383388D02*
X12366491Y-8402436D01*
X12366491Y-8402436D02*
X12356967Y-8411960D01*
X12356967Y-8411960D02*
X12337920Y-8421484D01*
X12337920Y-8421484D02*
X12318872Y-8421484D01*
X12318872Y-8421484D02*
X12299824Y-8411960D01*
X12299824Y-8411960D02*
X12290301Y-8402436D01*
X12290301Y-8402436D02*
X12280777Y-8383388D01*
X12280777Y-8383388D02*
X12271253Y-8345293D01*
X12271253Y-8345293D02*
X12271253Y-8297674D01*
X12271253Y-8297674D02*
X12280777Y-8259579D01*
X12280777Y-8259579D02*
X12290301Y-8240531D01*
X12290301Y-8240531D02*
X12299824Y-8231008D01*
X12299824Y-8231008D02*
X12318872Y-8221484D01*
X12471253Y-8402436D02*
X12480777Y-8411960D01*
X12480777Y-8411960D02*
X12471253Y-8421484D01*
X12471253Y-8421484D02*
X12461729Y-8411960D01*
X12461729Y-8411960D02*
X12471253Y-8402436D01*
X12471253Y-8402436D02*
X12471253Y-8421484D01*
X12547443Y-8221484D02*
X12671253Y-8221484D01*
X12671253Y-8221484D02*
X12604586Y-8297674D01*
X12604586Y-8297674D02*
X12633158Y-8297674D01*
X12633158Y-8297674D02*
X12652205Y-8307198D01*
X12652205Y-8307198D02*
X12661729Y-8316722D01*
X12661729Y-8316722D02*
X12671253Y-8335769D01*
X12671253Y-8335769D02*
X12671253Y-8383388D01*
X12671253Y-8383388D02*
X12661729Y-8402436D01*
X12661729Y-8402436D02*
X12652205Y-8411960D01*
X12652205Y-8411960D02*
X12633158Y-8421484D01*
X12633158Y-8421484D02*
X12576015Y-8421484D01*
X12576015Y-8421484D02*
X12556967Y-8411960D01*
X12556967Y-8411960D02*
X12547443Y-8402436D01*
X12795062Y-8221484D02*
X12814110Y-8221484D01*
X12814110Y-8221484D02*
X12833158Y-8231008D01*
X12833158Y-8231008D02*
X12842682Y-8240531D01*
X12842682Y-8240531D02*
X12852205Y-8259579D01*
X12852205Y-8259579D02*
X12861729Y-8297674D01*
X12861729Y-8297674D02*
X12861729Y-8345293D01*
X12861729Y-8345293D02*
X12852205Y-8383388D01*
X12852205Y-8383388D02*
X12842682Y-8402436D01*
X12842682Y-8402436D02*
X12833158Y-8411960D01*
X12833158Y-8411960D02*
X12814110Y-8421484D01*
X12814110Y-8421484D02*
X12795062Y-8421484D01*
X12795062Y-8421484D02*
X12776015Y-8411960D01*
X12776015Y-8411960D02*
X12766491Y-8402436D01*
X12766491Y-8402436D02*
X12756967Y-8383388D01*
X12756967Y-8383388D02*
X12747443Y-8345293D01*
X12747443Y-8345293D02*
X12747443Y-8297674D01*
X12747443Y-8297674D02*
X12756967Y-8259579D01*
X12756967Y-8259579D02*
X12766491Y-8240531D01*
X12766491Y-8240531D02*
X12776015Y-8231008D01*
X12776015Y-8231008D02*
X12795062Y-8221484D01*
X12985539Y-8221484D02*
X13004586Y-8221484D01*
X13004586Y-8221484D02*
X13023634Y-8231008D01*
X13023634Y-8231008D02*
X13033158Y-8240531D01*
X13033158Y-8240531D02*
X13042682Y-8259579D01*
X13042682Y-8259579D02*
X13052205Y-8297674D01*
X13052205Y-8297674D02*
X13052205Y-8345293D01*
X13052205Y-8345293D02*
X13042682Y-8383388D01*
X13042682Y-8383388D02*
X13033158Y-8402436D01*
X13033158Y-8402436D02*
X13023634Y-8411960D01*
X13023634Y-8411960D02*
X13004586Y-8421484D01*
X13004586Y-8421484D02*
X12985539Y-8421484D01*
X12985539Y-8421484D02*
X12966491Y-8411960D01*
X12966491Y-8411960D02*
X12956967Y-8402436D01*
X12956967Y-8402436D02*
X12947443Y-8383388D01*
X12947443Y-8383388D02*
X12937920Y-8345293D01*
X12937920Y-8345293D02*
X12937920Y-8297674D01*
X12937920Y-8297674D02*
X12947443Y-8259579D01*
X12947443Y-8259579D02*
X12956967Y-8240531D01*
X12956967Y-8240531D02*
X12966491Y-8231008D01*
X12966491Y-8231008D02*
X12985539Y-8221484D01*
X13137920Y-8421484D02*
X13137920Y-8288150D01*
X13137920Y-8307198D02*
X13147443Y-8297674D01*
X13147443Y-8297674D02*
X13166491Y-8288150D01*
X13166491Y-8288150D02*
X13195063Y-8288150D01*
X13195063Y-8288150D02*
X13214110Y-8297674D01*
X13214110Y-8297674D02*
X13223634Y-8316722D01*
X13223634Y-8316722D02*
X13223634Y-8421484D01*
X13223634Y-8316722D02*
X13233158Y-8297674D01*
X13233158Y-8297674D02*
X13252205Y-8288150D01*
X13252205Y-8288150D02*
X13280777Y-8288150D01*
X13280777Y-8288150D02*
X13299824Y-8297674D01*
X13299824Y-8297674D02*
X13309348Y-8316722D01*
X13309348Y-8316722D02*
X13309348Y-8421484D01*
X13404586Y-8421484D02*
X13404586Y-8288150D01*
X13404586Y-8307198D02*
X13414110Y-8297674D01*
X13414110Y-8297674D02*
X13433158Y-8288150D01*
X13433158Y-8288150D02*
X13461729Y-8288150D01*
X13461729Y-8288150D02*
X13480777Y-8297674D01*
X13480777Y-8297674D02*
X13490301Y-8316722D01*
X13490301Y-8316722D02*
X13490301Y-8421484D01*
X13490301Y-8316722D02*
X13499824Y-8297674D01*
X13499824Y-8297674D02*
X13518872Y-8288150D01*
X13518872Y-8288150D02*
X13547443Y-8288150D01*
X13547443Y-8288150D02*
X13566491Y-8297674D01*
X13566491Y-8297674D02*
X13576015Y-8316722D01*
X13576015Y-8316722D02*
X13576015Y-8421484D01*
X13966491Y-8211960D02*
X13795063Y-8469103D01*
X14223634Y-8221484D02*
X14242682Y-8221484D01*
X14242682Y-8221484D02*
X14261729Y-8231008D01*
X14261729Y-8231008D02*
X14271253Y-8240531D01*
X14271253Y-8240531D02*
X14280777Y-8259579D01*
X14280777Y-8259579D02*
X14290301Y-8297674D01*
X14290301Y-8297674D02*
X14290301Y-8345293D01*
X14290301Y-8345293D02*
X14280777Y-8383388D01*
X14280777Y-8383388D02*
X14271253Y-8402436D01*
X14271253Y-8402436D02*
X14261729Y-8411960D01*
X14261729Y-8411960D02*
X14242682Y-8421484D01*
X14242682Y-8421484D02*
X14223634Y-8421484D01*
X14223634Y-8421484D02*
X14204586Y-8411960D01*
X14204586Y-8411960D02*
X14195063Y-8402436D01*
X14195063Y-8402436D02*
X14185539Y-8383388D01*
X14185539Y-8383388D02*
X14176015Y-8345293D01*
X14176015Y-8345293D02*
X14176015Y-8297674D01*
X14176015Y-8297674D02*
X14185539Y-8259579D01*
X14185539Y-8259579D02*
X14195063Y-8240531D01*
X14195063Y-8240531D02*
X14204586Y-8231008D01*
X14204586Y-8231008D02*
X14223634Y-8221484D01*
X14376015Y-8402436D02*
X14385539Y-8411960D01*
X14385539Y-8411960D02*
X14376015Y-8421484D01*
X14376015Y-8421484D02*
X14366491Y-8411960D01*
X14366491Y-8411960D02*
X14376015Y-8402436D01*
X14376015Y-8402436D02*
X14376015Y-8421484D01*
X14509348Y-8221484D02*
X14528396Y-8221484D01*
X14528396Y-8221484D02*
X14547444Y-8231008D01*
X14547444Y-8231008D02*
X14556967Y-8240531D01*
X14556967Y-8240531D02*
X14566491Y-8259579D01*
X14566491Y-8259579D02*
X14576015Y-8297674D01*
X14576015Y-8297674D02*
X14576015Y-8345293D01*
X14576015Y-8345293D02*
X14566491Y-8383388D01*
X14566491Y-8383388D02*
X14556967Y-8402436D01*
X14556967Y-8402436D02*
X14547444Y-8411960D01*
X14547444Y-8411960D02*
X14528396Y-8421484D01*
X14528396Y-8421484D02*
X14509348Y-8421484D01*
X14509348Y-8421484D02*
X14490301Y-8411960D01*
X14490301Y-8411960D02*
X14480777Y-8402436D01*
X14480777Y-8402436D02*
X14471253Y-8383388D01*
X14471253Y-8383388D02*
X14461729Y-8345293D01*
X14461729Y-8345293D02*
X14461729Y-8297674D01*
X14461729Y-8297674D02*
X14471253Y-8259579D01*
X14471253Y-8259579D02*
X14480777Y-8240531D01*
X14480777Y-8240531D02*
X14490301Y-8231008D01*
X14490301Y-8231008D02*
X14509348Y-8221484D01*
X14766491Y-8421484D02*
X14652206Y-8421484D01*
X14709348Y-8421484D02*
X14709348Y-8221484D01*
X14709348Y-8221484D02*
X14690301Y-8250055D01*
X14690301Y-8250055D02*
X14671253Y-8269103D01*
X14671253Y-8269103D02*
X14652206Y-8278627D01*
X14956967Y-8421484D02*
X14842682Y-8421484D01*
X14899825Y-8421484D02*
X14899825Y-8221484D01*
X14899825Y-8221484D02*
X14880777Y-8250055D01*
X14880777Y-8250055D02*
X14861729Y-8269103D01*
X14861729Y-8269103D02*
X14842682Y-8278627D01*
X15071253Y-8307198D02*
X15052206Y-8297674D01*
X15052206Y-8297674D02*
X15042682Y-8288150D01*
X15042682Y-8288150D02*
X15033158Y-8269103D01*
X15033158Y-8269103D02*
X15033158Y-8259579D01*
X15033158Y-8259579D02*
X15042682Y-8240531D01*
X15042682Y-8240531D02*
X15052206Y-8231008D01*
X15052206Y-8231008D02*
X15071253Y-8221484D01*
X15071253Y-8221484D02*
X15109348Y-8221484D01*
X15109348Y-8221484D02*
X15128396Y-8231008D01*
X15128396Y-8231008D02*
X15137920Y-8240531D01*
X15137920Y-8240531D02*
X15147444Y-8259579D01*
X15147444Y-8259579D02*
X15147444Y-8269103D01*
X15147444Y-8269103D02*
X15137920Y-8288150D01*
X15137920Y-8288150D02*
X15128396Y-8297674D01*
X15128396Y-8297674D02*
X15109348Y-8307198D01*
X15109348Y-8307198D02*
X15071253Y-8307198D01*
X15071253Y-8307198D02*
X15052206Y-8316722D01*
X15052206Y-8316722D02*
X15042682Y-8326246D01*
X15042682Y-8326246D02*
X15033158Y-8345293D01*
X15033158Y-8345293D02*
X15033158Y-8383388D01*
X15033158Y-8383388D02*
X15042682Y-8402436D01*
X15042682Y-8402436D02*
X15052206Y-8411960D01*
X15052206Y-8411960D02*
X15071253Y-8421484D01*
X15071253Y-8421484D02*
X15109348Y-8421484D01*
X15109348Y-8421484D02*
X15128396Y-8411960D01*
X15128396Y-8411960D02*
X15137920Y-8402436D01*
X15137920Y-8402436D02*
X15147444Y-8383388D01*
X15147444Y-8383388D02*
X15147444Y-8345293D01*
X15147444Y-8345293D02*
X15137920Y-8326246D01*
X15137920Y-8326246D02*
X15128396Y-8316722D01*
X15128396Y-8316722D02*
X15109348Y-8307198D01*
X15223634Y-8221484D02*
X15223634Y-8259579D01*
X15299825Y-8221484D02*
X15299825Y-8259579D01*
X15595063Y-8497674D02*
X15585539Y-8488150D01*
X15585539Y-8488150D02*
X15566491Y-8459579D01*
X15566491Y-8459579D02*
X15556968Y-8440531D01*
X15556968Y-8440531D02*
X15547444Y-8411960D01*
X15547444Y-8411960D02*
X15537920Y-8364341D01*
X15537920Y-8364341D02*
X15537920Y-8326246D01*
X15537920Y-8326246D02*
X15547444Y-8278627D01*
X15547444Y-8278627D02*
X15556968Y-8250055D01*
X15556968Y-8250055D02*
X15566491Y-8231008D01*
X15566491Y-8231008D02*
X15585539Y-8202436D01*
X15585539Y-8202436D02*
X15595063Y-8192912D01*
X15776015Y-8421484D02*
X15661729Y-8421484D01*
X15718872Y-8421484D02*
X15718872Y-8221484D01*
X15718872Y-8221484D02*
X15699825Y-8250055D01*
X15699825Y-8250055D02*
X15680777Y-8269103D01*
X15680777Y-8269103D02*
X15661729Y-8278627D01*
X15899825Y-8221484D02*
X15918872Y-8221484D01*
X15918872Y-8221484D02*
X15937920Y-8231008D01*
X15937920Y-8231008D02*
X15947444Y-8240531D01*
X15947444Y-8240531D02*
X15956968Y-8259579D01*
X15956968Y-8259579D02*
X15966491Y-8297674D01*
X15966491Y-8297674D02*
X15966491Y-8345293D01*
X15966491Y-8345293D02*
X15956968Y-8383388D01*
X15956968Y-8383388D02*
X15947444Y-8402436D01*
X15947444Y-8402436D02*
X15937920Y-8411960D01*
X15937920Y-8411960D02*
X15918872Y-8421484D01*
X15918872Y-8421484D02*
X15899825Y-8421484D01*
X15899825Y-8421484D02*
X15880777Y-8411960D01*
X15880777Y-8411960D02*
X15871253Y-8402436D01*
X15871253Y-8402436D02*
X15861729Y-8383388D01*
X15861729Y-8383388D02*
X15852206Y-8345293D01*
X15852206Y-8345293D02*
X15852206Y-8297674D01*
X15852206Y-8297674D02*
X15861729Y-8259579D01*
X15861729Y-8259579D02*
X15871253Y-8240531D01*
X15871253Y-8240531D02*
X15880777Y-8231008D01*
X15880777Y-8231008D02*
X15899825Y-8221484D01*
X16204587Y-8421484D02*
X16204587Y-8221484D01*
X16290301Y-8421484D02*
X16290301Y-8316722D01*
X16290301Y-8316722D02*
X16280777Y-8297674D01*
X16280777Y-8297674D02*
X16261730Y-8288150D01*
X16261730Y-8288150D02*
X16233158Y-8288150D01*
X16233158Y-8288150D02*
X16214110Y-8297674D01*
X16214110Y-8297674D02*
X16204587Y-8307198D01*
X16414110Y-8421484D02*
X16395063Y-8411960D01*
X16395063Y-8411960D02*
X16385539Y-8402436D01*
X16385539Y-8402436D02*
X16376015Y-8383388D01*
X16376015Y-8383388D02*
X16376015Y-8326246D01*
X16376015Y-8326246D02*
X16385539Y-8307198D01*
X16385539Y-8307198D02*
X16395063Y-8297674D01*
X16395063Y-8297674D02*
X16414110Y-8288150D01*
X16414110Y-8288150D02*
X16442682Y-8288150D01*
X16442682Y-8288150D02*
X16461730Y-8297674D01*
X16461730Y-8297674D02*
X16471253Y-8307198D01*
X16471253Y-8307198D02*
X16480777Y-8326246D01*
X16480777Y-8326246D02*
X16480777Y-8383388D01*
X16480777Y-8383388D02*
X16471253Y-8402436D01*
X16471253Y-8402436D02*
X16461730Y-8411960D01*
X16461730Y-8411960D02*
X16442682Y-8421484D01*
X16442682Y-8421484D02*
X16414110Y-8421484D01*
X16595063Y-8421484D02*
X16576015Y-8411960D01*
X16576015Y-8411960D02*
X16566491Y-8392912D01*
X16566491Y-8392912D02*
X16566491Y-8221484D01*
X16747444Y-8411960D02*
X16728396Y-8421484D01*
X16728396Y-8421484D02*
X16690301Y-8421484D01*
X16690301Y-8421484D02*
X16671253Y-8411960D01*
X16671253Y-8411960D02*
X16661730Y-8392912D01*
X16661730Y-8392912D02*
X16661730Y-8316722D01*
X16661730Y-8316722D02*
X16671253Y-8297674D01*
X16671253Y-8297674D02*
X16690301Y-8288150D01*
X16690301Y-8288150D02*
X16728396Y-8288150D01*
X16728396Y-8288150D02*
X16747444Y-8297674D01*
X16747444Y-8297674D02*
X16756968Y-8316722D01*
X16756968Y-8316722D02*
X16756968Y-8335769D01*
X16756968Y-8335769D02*
X16661730Y-8354817D01*
X16833158Y-8411960D02*
X16852206Y-8421484D01*
X16852206Y-8421484D02*
X16890301Y-8421484D01*
X16890301Y-8421484D02*
X16909349Y-8411960D01*
X16909349Y-8411960D02*
X16918873Y-8392912D01*
X16918873Y-8392912D02*
X16918873Y-8383388D01*
X16918873Y-8383388D02*
X16909349Y-8364341D01*
X16909349Y-8364341D02*
X16890301Y-8354817D01*
X16890301Y-8354817D02*
X16861730Y-8354817D01*
X16861730Y-8354817D02*
X16842682Y-8345293D01*
X16842682Y-8345293D02*
X16833158Y-8326246D01*
X16833158Y-8326246D02*
X16833158Y-8316722D01*
X16833158Y-8316722D02*
X16842682Y-8297674D01*
X16842682Y-8297674D02*
X16861730Y-8288150D01*
X16861730Y-8288150D02*
X16890301Y-8288150D01*
X16890301Y-8288150D02*
X16909349Y-8297674D01*
X16985539Y-8497674D02*
X16995063Y-8488150D01*
X16995063Y-8488150D02*
X17014111Y-8459579D01*
X17014111Y-8459579D02*
X17023634Y-8440531D01*
X17023634Y-8440531D02*
X17033158Y-8411960D01*
X17033158Y-8411960D02*
X17042682Y-8364341D01*
X17042682Y-8364341D02*
X17042682Y-8326246D01*
X17042682Y-8326246D02*
X17033158Y-8278627D01*
X17033158Y-8278627D02*
X17023634Y-8250055D01*
X17023634Y-8250055D02*
X17014111Y-8231008D01*
X17014111Y-8231008D02*
X16995063Y-8202436D01*
X16995063Y-8202436D02*
X16985539Y-8192912D01*
M02*
