%TF.GenerationSoftware,KiCad,Pcbnew,10.0.1*%
%TF.CreationDate,2026-09-29T15:39:46+01:00*%
%TF.ProjectId,pc080,70633038-302e-46b6-9963-61645f706362,rev?*%
%TF.SameCoordinates,Original*%
%TF.FileFunction,Drillmap*%
%TF.FilePolarity,Positive*%
%FSLAX45Y45*%
G04 Gerber Fmt 4.5, Leading zero omitted, Abs format (unit mm)*
G04 Created by KiCad (PCBNEW 10.0.1) date 2026-09-29 15:39:46*
%MOMM*%
%LPD*%
G01*
G04 APERTURE LIST*
%ADD10C,0.050000*%
%ADD11C,0.200000*%
G04 APERTURE END LIST*
D10*
X12022500Y-6552500D02*
X14122500Y-6552500D01*
X12022500Y-7632500D02*
X12022500Y-6552500D01*
X12302500Y-6887500D02*
X12712500Y-6887500D01*
X12302500Y-7297500D02*
X12302500Y-6887500D01*
X12712500Y-6887500D02*
X12712500Y-7297500D01*
X12712500Y-7297500D02*
X12302500Y-7297500D01*
X14122500Y-6497500D02*
X15177500Y-6497500D01*
X14122500Y-6552500D02*
X14122500Y-6497500D01*
X14122500Y-7632500D02*
X12022500Y-7632500D01*
X14122500Y-7687500D02*
X14122500Y-7632500D01*
X15177500Y-6497500D02*
X15177500Y-6597500D01*
X15177500Y-6597500D02*
X15432500Y-6597500D01*
X15407500Y-7587500D02*
X15407500Y-7687500D01*
X15407500Y-7687500D02*
X14122500Y-7687500D01*
X15432500Y-6497500D02*
X15942500Y-6497500D01*
X15432500Y-6597500D02*
X15432500Y-6497500D01*
X15662500Y-7587500D02*
X15407500Y-7587500D01*
X15662500Y-7687500D02*
X15662500Y-7587500D01*
X15942500Y-6497500D02*
X15942500Y-6632500D01*
X15942500Y-7552500D02*
X15942500Y-7687500D01*
X15942500Y-7687500D02*
X15662500Y-7687500D01*
X16612500Y-6632500D02*
X15942500Y-6632500D01*
X16612500Y-7552500D02*
X15942500Y-7552500D01*
X16612500Y-7552500D02*
X16612500Y-6632500D01*
D11*
X12280777Y-8001484D02*
X12280777Y-7801484D01*
X12280777Y-7801484D02*
X12328396Y-7801484D01*
X12328396Y-7801484D02*
X12356967Y-7811008D01*
X12356967Y-7811008D02*
X12376015Y-7830055D01*
X12376015Y-7830055D02*
X12385539Y-7849103D01*
X12385539Y-7849103D02*
X12395062Y-7887198D01*
X12395062Y-7887198D02*
X12395062Y-7915769D01*
X12395062Y-7915769D02*
X12385539Y-7953865D01*
X12385539Y-7953865D02*
X12376015Y-7972912D01*
X12376015Y-7972912D02*
X12356967Y-7991960D01*
X12356967Y-7991960D02*
X12328396Y-8001484D01*
X12328396Y-8001484D02*
X12280777Y-8001484D01*
X12480777Y-8001484D02*
X12480777Y-7868150D01*
X12480777Y-7906246D02*
X12490301Y-7887198D01*
X12490301Y-7887198D02*
X12499824Y-7877674D01*
X12499824Y-7877674D02*
X12518872Y-7868150D01*
X12518872Y-7868150D02*
X12537920Y-7868150D01*
X12604586Y-8001484D02*
X12604586Y-7868150D01*
X12604586Y-7801484D02*
X12595062Y-7811008D01*
X12595062Y-7811008D02*
X12604586Y-7820531D01*
X12604586Y-7820531D02*
X12614110Y-7811008D01*
X12614110Y-7811008D02*
X12604586Y-7801484D01*
X12604586Y-7801484D02*
X12604586Y-7820531D01*
X12728396Y-8001484D02*
X12709348Y-7991960D01*
X12709348Y-7991960D02*
X12699824Y-7972912D01*
X12699824Y-7972912D02*
X12699824Y-7801484D01*
X12833158Y-8001484D02*
X12814110Y-7991960D01*
X12814110Y-7991960D02*
X12804586Y-7972912D01*
X12804586Y-7972912D02*
X12804586Y-7801484D01*
X13061729Y-8001484D02*
X13061729Y-7801484D01*
X13061729Y-7801484D02*
X13128396Y-7944341D01*
X13128396Y-7944341D02*
X13195062Y-7801484D01*
X13195062Y-7801484D02*
X13195062Y-8001484D01*
X13376015Y-8001484D02*
X13376015Y-7896722D01*
X13376015Y-7896722D02*
X13366491Y-7877674D01*
X13366491Y-7877674D02*
X13347443Y-7868150D01*
X13347443Y-7868150D02*
X13309348Y-7868150D01*
X13309348Y-7868150D02*
X13290301Y-7877674D01*
X13376015Y-7991960D02*
X13356967Y-8001484D01*
X13356967Y-8001484D02*
X13309348Y-8001484D01*
X13309348Y-8001484D02*
X13290301Y-7991960D01*
X13290301Y-7991960D02*
X13280777Y-7972912D01*
X13280777Y-7972912D02*
X13280777Y-7953865D01*
X13280777Y-7953865D02*
X13290301Y-7934817D01*
X13290301Y-7934817D02*
X13309348Y-7925293D01*
X13309348Y-7925293D02*
X13356967Y-7925293D01*
X13356967Y-7925293D02*
X13376015Y-7915769D01*
X13471253Y-7868150D02*
X13471253Y-8068150D01*
X13471253Y-7877674D02*
X13490301Y-7868150D01*
X13490301Y-7868150D02*
X13528396Y-7868150D01*
X13528396Y-7868150D02*
X13547443Y-7877674D01*
X13547443Y-7877674D02*
X13556967Y-7887198D01*
X13556967Y-7887198D02*
X13566491Y-7906246D01*
X13566491Y-7906246D02*
X13566491Y-7963388D01*
X13566491Y-7963388D02*
X13556967Y-7982436D01*
X13556967Y-7982436D02*
X13547443Y-7991960D01*
X13547443Y-7991960D02*
X13528396Y-8001484D01*
X13528396Y-8001484D02*
X13490301Y-8001484D01*
X13490301Y-8001484D02*
X13471253Y-7991960D01*
X13652205Y-7982436D02*
X13661729Y-7991960D01*
X13661729Y-7991960D02*
X13652205Y-8001484D01*
X13652205Y-8001484D02*
X13642682Y-7991960D01*
X13642682Y-7991960D02*
X13652205Y-7982436D01*
X13652205Y-7982436D02*
X13652205Y-8001484D01*
X13652205Y-7877674D02*
X13661729Y-7887198D01*
X13661729Y-7887198D02*
X13652205Y-7896722D01*
X13652205Y-7896722D02*
X13642682Y-7887198D01*
X13642682Y-7887198D02*
X13652205Y-7877674D01*
X13652205Y-7877674D02*
X13652205Y-7896722D01*
M02*
